<svg width="56" height="56" viewBox="0 0 56 56" fill="none" xmlns="http://www.w3.org/2000/svg">
    <path d="M55.1778 45.6532H54.0771C54.2502 45.2854 54.3475 44.875 54.3475 44.4421C54.3475 42.8697 53.07 41.5904 51.5 41.5904H44.6731C44.2199 41.5904 43.8528 41.9576 43.8528 42.4107C43.8528 42.8639 44.2199 43.231 44.6731 43.231H51.5C52.1655 43.231 52.7069 43.7744 52.7069 44.4421C52.7069 45.1099 52.1655 45.6532 51.5 45.6532H11.2047C10.8097 45.6532 10.4391 45.4588 10.2136 45.1331L1.85535 33.0606C1.47505 32.5114 1.61144 31.7548 2.15919 31.3738C2.42365 31.19 2.74379 31.1202 3.06021 31.1774C3.3775 31.2347 3.65356 31.4127 3.83753 31.6784L11.5912 42.8777C11.7444 43.0989 11.9965 43.2309 12.2656 43.2309H40.8449C41.298 43.2309 41.6652 42.8638 41.6652 42.4106C41.6652 41.9575 41.298 41.5903 40.8449 41.5903H34.5454L31.8226 31.4077C31.7056 30.9699 31.2558 30.7095 30.8183 30.8272C30.3807 30.9441 30.1207 31.3939 30.2377 31.8316L32.847 41.5903H31.547L25.3019 18.2338C25.5135 18.1765 25.631 18.1321 26.5147 17.9081L29.249 28.1334C29.347 28.5002 29.6786 28.742 30.0408 28.742C30.1111 28.742 30.1823 28.7329 30.2532 28.7139C30.691 28.597 30.9508 28.1472 30.8338 27.7095L28.1146 17.5403C31.3026 16.8795 34.5569 16.621 37.8172 16.7728C38.1384 16.7871 38.4527 16.69 38.7053 16.498C40.5661 15.0855 42.6335 13.995 44.85 13.257C46.5471 12.6918 48.3136 12.3424 50.1005 12.2182C50.6652 12.179 51.1407 11.8054 51.3118 11.2665C51.4825 10.7293 51.3102 10.1517 50.8731 9.79506C50.8731 9.79506 50.873 9.79506 50.873 9.79496C49.1359 8.37758 45.4715 5.72855 40.4482 3.91207C35.0135 1.94684 29.5247 1.48266 24.0994 2.52412L23.8748 1.68369C23.7182 1.09778 23.3427 0.60811 22.8174 0.304926C22.2924 0.00185192 21.6811 -0.0787565 21.0952 0.0786322C19.8882 0.402707 19.1691 1.64869 19.492 2.85629L19.7179 3.70142C14.4789 5.52413 9.94364 8.68864 6.21367 13.1321C2.79049 17.2097 0.950606 21.3227 0.158522 23.4113C-0.0416323 23.9392 0.0982567 24.5256 0.51508 24.9055C0.773858 25.1413 1.10198 25.2638 1.43502 25.2638C1.63977 25.2638 1.84649 25.2174 2.04008 25.1227C3.64973 24.335 5.35388 23.7527 7.10506 23.3919C9.38955 22.9212 11.7237 22.8295 14.0418 23.1193C14.3563 23.1581 14.6776 23.0854 14.9467 22.9131C17.6987 21.1484 20.6459 19.7417 23.7332 18.7171L29.8492 41.5902H21.9987V38.1814H23.2047C24.6151 38.1814 25.7626 37.0323 25.7626 35.6198C25.7626 34.2074 24.6151 33.0583 23.2047 33.0583H18.6764C18.2232 33.0583 17.8561 33.4255 17.8561 33.8786C17.8561 34.3317 18.2232 34.6989 18.6764 34.6989H23.2047C23.7104 34.6989 24.122 35.112 24.122 35.6198C24.122 36.1277 23.7104 36.5408 23.2047 36.5408H9.19935L7.92416 34.6989H14.8481C15.3012 34.6989 15.6684 34.3317 15.6684 33.8786C15.6684 33.4255 15.3012 33.0583 14.8481 33.0583H6.78832L5.18654 30.7447C4.75276 30.1181 4.10122 29.6986 3.35212 29.5631C2.6039 29.4276 1.84725 29.5926 1.22262 30.0269C-0.0663507 30.9231 -0.3878 32.7028 0.506439 33.9945L8.57833 45.6532H7.56695C7.11381 45.6532 6.74665 46.0204 6.74665 46.4735V50.5364C6.74665 50.9896 7.11381 51.3567 7.56695 51.3567H9.99023V55.1797C9.99023 55.6328 10.3574 56 10.8105 56H14.2857C14.6621 56 14.9904 55.7436 15.0816 55.3782L16.085 51.3566H19.9568C20.4099 51.3566 20.7771 50.9895 20.7771 50.5363C20.7771 50.0832 20.4099 49.716 19.9568 49.716H8.38725V47.2937H54.3576V49.716H23.7849C23.3318 49.716 22.9646 50.0832 22.9646 50.5363C22.9646 50.9895 23.3318 51.3566 23.7849 51.3566H46.6597L47.6631 55.3782C47.7543 55.7436 48.0826 56 48.459 56H51.9342C52.3873 56 52.7545 55.6328 52.7545 55.1797V51.3567H55.1778C55.6309 51.3567 55.9981 50.9896 55.9981 50.5364V46.4735C55.9981 46.0205 55.6309 45.6532 55.1778 45.6532ZM25.4826 16.4804C21.748 17.4831 18.186 19.0097 14.8801 21.0213C14.5903 18.8778 14.7037 16.7028 15.2171 14.6485C17.6211 13.4978 20.6099 12.0696 24.1156 11.137C27.4064 10.2589 30.7622 9.97695 33.3295 9.78369C34.7908 11.2967 35.9689 13.1114 36.7869 15.0996C32.9723 15.0263 29.1749 15.4891 25.4826 16.4804ZM22.2597 4.68173C24.4707 4.85706 28.2187 5.58177 31.652 8.27302C29.3078 8.47361 26.5796 8.7838 23.6939 9.55149C20.7058 10.3465 18.1111 11.4712 15.9161 12.5002C17.5469 8.4478 20.432 5.9415 22.2597 4.68173ZM44.3318 11.7006C42.2111 12.4068 40.2178 13.4133 38.3939 14.6957C37.5754 12.6332 36.4022 10.7343 34.947 9.11432C37.1308 7.86582 39.6225 6.91241 42.229 6.42034C45.4524 7.86462 47.8929 9.55007 49.2994 10.6399C47.6096 10.8085 45.9417 11.1644 44.3318 11.7006ZM39.5921 5.3686C37.7374 5.89622 35.5298 6.84044 33.757 7.90902C31.3808 5.72078 28.7832 4.49777 26.5064 3.81812C27.5902 3.69475 28.6506 3.63776 29.6849 3.63776C33.3613 3.63776 36.7063 4.35744 39.5921 5.3686ZM21.0768 2.43246C20.9874 2.098 21.1865 1.75282 21.5207 1.66313C21.6827 1.61982 21.8519 1.64191 21.9971 1.7258C22.1425 1.8098 22.2464 1.94531 22.29 2.10762L22.4957 2.87696C22.3052 2.92782 22.1838 2.94575 21.2826 3.20213L21.0768 2.43246ZM18.1105 6.10217C16.4911 7.8271 14.8702 10.1739 13.9116 13.2342C12.2872 13.1727 9.83153 13.3678 7.71624 13.9277C10.2397 10.9898 13.6348 8.08818 18.1105 6.10217ZM6.77388 21.7852C5.11282 22.1274 3.49136 22.6546 1.94405 23.355C2.61506 21.7115 3.88171 19.0369 5.94472 16.1771C7.01057 15.7969 8.10988 15.4912 9.21532 15.2694C10.8692 14.9375 12.2489 14.8608 13.4833 14.8695C13.0331 16.9888 12.9615 19.2075 13.2745 21.3915C11.0981 21.2123 8.91586 21.3437 6.77388 21.7852ZM20.358 41.5904H18.5235V38.1814H20.358V41.5904ZM16.8827 38.1814V41.5904H12.6955L10.3352 38.1814H16.8827ZM13.645 54.3595H11.6308V51.3569H14.3941L13.645 54.3595ZM51.1139 54.3595H49.0998L48.3507 51.3569H51.1139V54.3595Z" fill="white"></path>
</svg>