<svg width="256" height="63" viewBox="0 0 256 63" fill="none" xmlns="http://www.w3.org/2000/svg">
<path d="M3.456 48H1.344L16.848 14.4H18.96L34.416 48H30.624L26.016 38.016H8.064L3.456 48ZM17.04 18.576L8.736 36.528H25.344L17.04 18.576ZM42.8216 48V14.4H46.4696V29.856H52.0376L65.4776 14.4H68.0216L54.8216 29.568L69.8456 48H65.5256L52.0856 31.776H46.4696V48H42.8216ZM78.5029 14.4H82.1509V46.224H104.711V14.4H108.311V46.224H113.639V55.68H111.287L110.231 48H78.5029V14.4ZM125.52 48H121.872V14.4H125.52V44.592L148.176 14.4H151.824V48H148.176V17.856L125.52 48ZM167.201 48H163.553V14.4H167.201V44.592L189.857 14.4H193.505V48H189.857V17.856L167.201 48Z" fill="#F7DAAE"/>
<rect x="244.314" y="21" width="16" height="16" transform="rotate(45 244.314 21)" fill="#F7DAAE"/>
</svg>
