<svg width="52" height="52" viewBox="0 0 52 52" fill="none" xmlns="http://www.w3.org/2000/svg">
<circle cx="26" cy="26" r="26" fill="#9CD6FF"/>
<path d="M33.5 19H14.5C14.3674 19 14.2402 19.0527 14.1464 19.1464C14.0527 19.2402 14 19.3673 14 19.4999V32.4979C14 32.6305 14.0527 32.7576 14.1464 32.8514C14.2402 32.9451 14.3674 32.9978 14.5 32.9978H17.05C17.1648 33.5629 17.4714 34.0709 17.9179 34.4358C18.3644 34.8007 18.9233 35 19.5 35C20.0767 35 20.6356 34.8007 21.0821 34.4358C21.5286 34.0709 21.8352 33.5629 21.95 32.9978H30.05C30.1648 33.5629 30.4714 34.0709 30.9179 34.4358C31.3644 34.8007 31.9233 35 32.5 35C33.0767 35 33.6356 34.8007 34.0821 34.4358C34.5286 34.0709 34.8352 33.5629 34.95 32.9978H37.5C37.6326 32.9978 37.7598 32.9451 37.8536 32.8514C37.9473 32.7576 38 32.6305 38 32.4979V24.4991C38 21.8496 36.59 19 33.5 19ZM37 24.4991V24.9991H32V19.9998H33.5C36.27 19.9998 37 22.9444 37 24.4991ZM20 24.9991V19.9998H25V24.9991H20ZM26 19.9998H31V24.9991H26V19.9998ZM19 19.9998V24.9991H15V19.9998H19ZM19.5 33.9977C19.2033 33.9977 18.9133 33.9097 18.6666 33.7449C18.42 33.5801 18.2277 33.3459 18.1142 33.0718C18.0006 32.7978 17.9709 32.4962 18.0288 32.2053C18.0867 31.9144 18.2296 31.6471 18.4393 31.4374C18.6491 31.2276 18.9164 31.0848 19.2074 31.0269C19.4983 30.9691 19.7999 30.9988 20.074 31.1123C20.3481 31.2258 20.5824 31.418 20.7472 31.6647C20.912 31.9113 21 32.2013 21 32.4979C21 32.8956 20.842 33.2771 20.5607 33.5584C20.2794 33.8396 19.8978 33.9977 19.5 33.9977ZM32.5 33.9977C32.2033 33.9977 31.9133 33.9097 31.6666 33.7449C31.42 33.5801 31.2277 33.3459 31.1142 33.0718C31.0007 32.7978 30.9709 32.4962 31.0288 32.2053C31.0867 31.9144 31.2296 31.6471 31.4393 31.4374C31.6491 31.2276 31.9164 31.0848 32.2074 31.0269C32.4983 30.9691 32.7999 30.9988 33.074 31.1123C33.3481 31.2258 33.5824 31.418 33.7472 31.6647C33.912 31.9113 34 32.2013 34 32.4979C34 32.8956 33.842 33.2771 33.5607 33.5584C33.2794 33.8396 32.8978 33.9977 32.5 33.9977ZM34.95 31.998C34.8352 31.4329 34.5286 30.9249 34.0821 30.56C33.6356 30.1951 33.0767 29.9958 32.5 29.9958C31.9233 29.9958 31.3644 30.1951 30.9179 30.56C30.4714 30.9249 30.1648 31.4329 30.05 31.998H21.95C21.8352 31.4329 21.5286 30.9249 21.0821 30.56C20.6356 30.1951 20.0767 29.9958 19.5 29.9958C18.9233 29.9958 18.3644 30.1951 17.9179 30.56C17.4714 30.9249 17.1648 31.4329 17.05 31.998H15V25.9989H37V31.998H34.95Z" fill="#262729"/>
</svg>
