<svg width="23" height="23" viewBox="0 0 23 23" fill="none" xmlns="http://www.w3.org/2000/svg">
<g clip-path="url(#clip0)">
<path d="M22.8437 22.031L12.2556 11.5006L22.7883 0.909795C22.9961 0.70091 22.9953 0.363149 22.7864 0.155331C22.5775 -0.0524862 22.2397 -0.0516861 22.0319 0.157198L11.5014 10.7464L0.911748 0.213736C0.702864 0.00591876 0.365102 0.00671883 0.157284 0.215603C-0.050533 0.424487 -0.0497329 0.762249 0.159151 0.970066L10.7472 11.5006L0.215689 22.0902C0.00787189 22.2991 0.00867196 22.6369 0.217556 22.8447C0.42644 23.0525 0.764202 23.0517 0.97202 22.8428L11.5014 12.2547L22.089 22.7874C22.2979 22.9952 22.6356 22.9944 22.8435 22.7855C23.0513 22.5766 23.0505 22.2389 22.8416 22.031H22.8437Z" fill="#CFD0D1"/>
</g>
<defs>
<clipPath id="clip0">
<rect width="23" height="23" fill="white"/>
</clipPath>
</defs>
</svg>
