<svg width="23" height="23" viewBox="0 0 23 23" fill="none" xmlns="http://www.w3.org/2000/svg">
<g clip-path="url(#clip0)">
<path d="M22.8437 22.0313L12.2556 11.5008L22.7883 0.910039C22.9961 0.701155 22.9953 0.363393 22.7864 0.155575C22.5775 -0.052242 22.2397 -0.0514419 22.0319 0.157442L11.5014 10.7466L0.911748 0.21398C0.702864 0.0061629 0.365102 0.00696298 0.157284 0.215847C-0.050533 0.424731 -0.0497329 0.762493 0.159151 0.970311L10.7472 11.5008L0.215689 22.0905C0.00787189 22.2994 0.00867196 22.6371 0.217556 22.8449C0.42644 23.0528 0.764202 23.052 0.97202 22.8431L11.5014 12.255L22.089 22.7876C22.2979 22.9954 22.6356 22.9946 22.8435 22.7857C23.0513 22.5769 23.0505 22.2391 22.8416 22.0313H22.8437Z" fill="#8E9093"/>
</g>
<defs>
<clipPath id="clip0">
<rect width="23" height="23" fill="white"/>
</clipPath>
</defs>
</svg>
