<svg width="107" height="107" viewBox="0 0 107 107" fill="none" xmlns="http://www.w3.org/2000/svg">
<circle cx="53.5" cy="53.5" r="52" fill="url(#paint0_linear)" stroke="white" stroke-width="3"/>
<path d="M45.92 24.896C45.136 24.112 44.744 23.08 44.744 21.8C44.744 20.52 45.136 19.488 45.92 18.704C46.704 17.92 47.736 17.528 49.016 17.528C50.296 17.528 51.328 17.92 52.112 18.704C52.896 19.488 53.288 20.52 53.288 21.8C53.288 23.08 52.896 24.112 52.112 24.896C51.328 25.68 50.296 26.072 49.016 26.072C47.736 26.072 46.704 25.68 45.92 24.896ZM46.592 18.98C45.984 19.692 45.68 20.632 45.68 21.8C45.68 22.968 45.984 23.912 46.592 24.632C47.208 25.344 48.016 25.7 49.016 25.7C50.016 25.7 50.82 25.344 51.428 24.632C52.044 23.912 52.352 22.968 52.352 21.8C52.352 20.632 52.044 19.692 51.428 18.98C50.82 18.26 50.016 17.9 49.016 17.9C48.016 17.9 47.208 18.26 46.592 18.98ZM62.2848 18.044H58.9248V26H58.0248V18.044H54.6648V17.6H62.2848V18.044Z" fill="white"/>
<path d="M34.312 90.92V88.556H35.284C35.62 88.396 35.904 87.892 36.136 87.044C36.376 86.196 36.536 85.076 36.616 83.684L36.796 80.6H42.1V88.556H43.42V90.92H42.844L42.58 89H35.152L34.888 90.92H34.312ZM35.884 88.556H41.188V81.044H37.276L37.108 83.636C37.02 84.996 36.88 86.072 36.688 86.864C36.504 87.656 36.236 88.22 35.884 88.556ZM46.4026 89H45.4906V80.6H46.4026V84.476H52.0426V80.6H52.9426V89H52.0426V84.92H46.4026V89ZM62.1517 89H55.8757V80.6H62.1517V81.044H56.7877V84.476H61.4677V84.92H56.7877V88.556H62.1517V89ZM64.5734 80.6H65.4854V88.148L71.1494 80.6H72.0614V89H71.1494V81.464L65.4854 89H64.5734V80.6ZM66.2294 78.08H66.9014C66.9014 78.464 67.0254 78.768 67.2734 78.992C67.5294 79.216 67.8774 79.328 68.3174 79.328C68.7494 79.328 69.0934 79.216 69.3494 78.992C69.6054 78.768 69.7334 78.464 69.7334 78.08H70.3934C70.3934 78.592 70.2054 78.996 69.8294 79.292C69.4614 79.588 68.9574 79.736 68.3174 79.736C67.6774 79.736 67.1694 79.588 66.7934 79.292C66.4174 78.996 66.2294 78.592 66.2294 78.08Z" fill="white"/>
<path d="M40.85 39.2V36H65.7V37.9C65.3667 38.2667 64.9167 38.8167 64.35 39.55C63.8167 40.25 62.85 41.75 61.45 44.05C60.05 46.35 58.8167 48.7167 57.75 51.15C56.6833 53.5833 55.7333 56.6167 54.9 60.25C54.0667 63.8833 53.6667 67.4667 53.7 71H50.05C50.05 67.6333 50.4667 64.2667 51.3 60.9C52.1333 57.5333 53.25 54.4667 54.65 51.7C56.05 48.9 57.35 46.55 58.55 44.65C59.7833 42.7167 61.0667 40.9 62.4 39.2H40.85Z" fill="white"/>
<defs>
<linearGradient id="paint0_linear" x1="94.5" y1="26" x2="17" y2="88" gradientUnits="userSpaceOnUse">
<stop stop-color="#AE8864"/>
<stop offset="0.462413" stop-color="#F2D5AB"/>
<stop offset="1" stop-color="#AE8864"/>
</linearGradient>
</defs>
</svg>
