<svg width="107" height="107" viewBox="0 0 107 107" fill="none" xmlns="http://www.w3.org/2000/svg">
<circle cx="53.5" cy="53.5" r="52" fill="url(#paint0_linear)" stroke="white" stroke-width="3"/>
<path d="M43.13 38.62L43.2 38.69H43.13V38.62ZM39.77 41.14C39.77 41.0933 39.7933 41.07 39.84 41.07L39.77 41.14ZM51.32 30.08C51.7867 30.08 52.2533 30.29 52.72 30.71C53.1867 31.0833 53.6067 31.55 53.98 32.11C54.3533 32.6233 54.6567 33.1833 54.89 33.79C55.17 34.35 55.31 34.84 55.31 35.26C55.31 35.7267 55.1233 36.4267 54.75 37.36C54.4233 38.2467 54.0267 39.2033 53.56 40.23C53.0933 41.2567 52.6267 42.2367 52.16 43.17C51.6933 44.1033 51.3433 44.8267 51.11 45.34L48.8 50.52C47.4467 53.5067 46.3967 56.5867 45.65 59.76C44.95 62.8867 44.3433 66.06 43.83 69.28C43.69 70.2133 43.55 71.1233 43.41 72.01C43.27 72.8967 43.2 73.8067 43.2 74.74C43.2 76.3267 43.48 77.75 44.04 79.01C44.6467 80.3167 45.86 81.0867 47.68 81.32C47.4 81.6467 47.05 81.95 46.63 82.23C46.2567 82.51 45.8367 82.65 45.37 82.65C44.39 82.65 43.4333 82.4167 42.5 81.95C41.6133 81.4833 40.8433 80.9 40.19 80.2C38.8833 78.8467 38.0433 77.26 37.67 75.44C37.3433 73.6667 37.18 71.8933 37.18 70.12C37.18 67.3667 37.4133 64.6133 37.88 61.86C38.3933 59.1067 39.0933 56.4 39.98 53.74C40.8667 51.0333 41.9167 48.42 43.13 45.9C44.39 43.38 45.7667 40.9767 47.26 38.69C47.7733 37.9433 48.3333 37.15 48.94 36.31C49.5933 35.4233 50.1067 34.5833 50.48 33.79C49.9667 34.2567 49.3133 34.63 48.52 34.91C47.7733 35.19 47.0733 35.5167 46.42 35.89C45.02 36.6833 43.6667 37.57 42.36 38.55C41.0533 39.4833 39.7933 40.4867 38.58 41.56C35.22 44.5467 32.4433 47.7667 30.25 51.22C28.0567 54.6267 26.0267 58.3367 24.16 62.35C23.5067 63.7033 22.9 65.08 22.34 66.48C21.78 67.88 21.1733 69.2567 20.52 70.61L20.24 71.1C20.1467 71.0067 19.9833 70.8667 19.75 70.68H19.82C17.9067 69.98 16.4833 69.07 15.55 67.95C14.6167 66.7833 14.15 65.15 14.15 63.05C14.15 61.3233 14.2667 59.62 14.5 57.94C14.78 56.2133 15.1533 54.5333 15.62 52.9C16.0867 51.2667 16.53 49.6333 16.95 48C17.4167 46.32 17.9067 44.6633 18.42 43.03C19.0267 40.9767 19.7033 38.9933 20.45 37.08C21.2433 35.12 22.06 33.16 22.9 31.2C21.8267 31.7133 20.7533 32.2267 19.68 32.74C18.6533 33.2067 17.5333 33.44 16.32 33.44C15.5733 33.44 14.7567 33.2533 13.87 32.88C13.03 32.5067 12.3533 32.0633 11.84 31.55H11.91C11.77 31.3633 11.5133 31.0367 11.14 30.57C10.7667 30.1033 10.58 29.7533 10.58 29.52C10.58 29.24 10.7667 29.0533 11.14 28.96C11.5133 28.8667 11.8633 28.7967 12.19 28.75C12.5167 28.7033 12.8667 28.6333 13.24 28.54C14.22 28.3533 15.2 28.1667 16.18 27.98C17.16 27.7933 18.14 27.5833 19.12 27.35C20.1933 27.1167 21.2667 26.86 22.34 26.58C23.46 26.2533 24.5567 25.9033 25.63 25.53C26.1433 25.3433 26.61 25.04 27.03 24.62C27.2633 24.4333 27.52 24.1767 27.8 23.85C28.1267 23.5233 28.4533 23.22 28.78 22.94C29.1533 22.6133 29.5033 22.3567 29.83 22.17C30.2033 21.9367 30.5533 21.82 30.88 21.82C31.0667 21.82 31.23 21.89 31.37 22.03C31.51 22.17 31.6267 22.2867 31.72 22.38L32.84 22.87L32.77 23.22L33.33 23.57L33.75 23.64L33.05 24.41L33.96 24.27L34.8 25.11C34.7067 25.25 34.6367 25.39 34.59 25.53C34.59 25.67 34.5433 25.7867 34.45 25.88C34.2167 26.2533 33.96 26.6033 33.68 26.93C33.4467 27.2567 33.2133 27.6067 32.98 27.98C32.4667 28.68 32 29.38 31.58 30.08C31.16 30.7333 30.7633 31.4567 30.39 32.25C28.6167 35.89 26.9833 39.5767 25.49 43.31C23.9967 46.9967 22.7133 50.7767 21.64 54.65C21.5467 54.8833 21.43 55.2333 21.29 55.7C21.1967 56.1667 21.08 56.68 20.94 57.24C20.8467 57.7533 20.7533 58.2433 20.66 58.71C20.5667 59.13 20.52 59.4333 20.52 59.62V60.11H20.45L20.52 60.18V60.11C23.2267 54.4167 26.3767 49.3533 29.97 44.92C33.61 40.44 38.1833 36.59 43.69 33.37C44.0633 33.1367 44.6 32.8333 45.3 32.46C46 32.0867 46.7233 31.7367 47.47 31.41C48.2167 31.0367 48.94 30.7333 49.64 30.5C50.34 30.22 50.9 30.08 51.32 30.08ZM32.42 27C32.42 27.0467 32.4433 27.07 32.49 27.07L32.42 27ZM28.5 28.05C28.5 28.0967 28.4767 28.1433 28.43 28.19L28.71 27.91L28.5 28.05ZM18.56 59.69C18.6067 59.5967 18.63 59.4333 18.63 59.2L18.56 59.34V59.69ZM19.12 57.24C18.8867 57.4733 18.77 57.73 18.77 58.01C18.77 58.1967 18.7933 58.3367 18.84 58.43C18.7933 58.4767 18.77 58.5933 18.77 58.78L18.7 58.92L18.77 58.85L18.84 58.5V58.43L19.12 57.24ZM19.26 56.12C19.2133 56.1667 19.19 56.3067 19.19 56.54C19.19 56.4933 19.19 56.47 19.19 56.47C19.2367 56.47 19.26 56.4467 19.26 56.4V56.12ZM20.1 68.44L19.96 68.72L20.1 68.51V68.44ZM19.54 55.07C19.9133 54.4633 20.17 53.81 20.31 53.11C20.45 52.41 20.6367 51.7333 20.87 51.08C21.2433 49.82 21.64 48.56 22.06 47.3C22.48 46.04 22.9 44.8033 23.32 43.59C24.3933 40.4633 25.6067 37.36 26.96 34.28C28.36 31.2 30.1567 28.4 32.35 25.88C32.3033 25.88 32.2567 25.88 32.21 25.88C32.1633 25.8333 32.1167 25.81 32.07 25.81C31.8367 25.81 31.6267 25.95 31.44 26.23C31.2533 26.4633 31.1133 26.65 31.02 26.79C30.04 28.19 29.13 29.6367 28.29 31.13C27.45 32.5767 26.7033 34.0933 26.05 35.68C24.6967 38.8533 23.4367 42.05 22.27 45.27C21.15 48.4433 20.24 51.71 19.54 55.07L19.47 55.14C19.47 55.2333 19.4467 55.3033 19.4 55.35C19.4 55.35 19.4 55.3967 19.4 55.49L19.26 55.91V55.98L19.33 55.91C19.33 55.8167 19.33 55.7467 19.33 55.7C19.3767 55.6533 19.4 55.5833 19.4 55.49L19.54 55.14V55.07ZM21.5 65.29L21.43 65.36L21.22 65.43C21.3133 65.43 21.3833 65.4067 21.43 65.36H21.5V65.29ZM22.13 63.4C22.0833 63.4467 22.06 63.5633 22.06 63.75L22.13 63.68V63.4ZM22.55 62.49C22.5033 62.49 22.48 62.5133 22.48 62.56L22.55 62.63V62.49ZM24.02 59.48C23.9733 59.5733 23.95 59.69 23.95 59.83L23.74 59.9C23.8333 59.9 23.9033 59.8767 23.95 59.83H24.02V59.48ZM48.1 31.97L48.38 31.76H48.31L48.1 31.97ZM46.56 32.67C46.6533 32.67 46.7467 32.6233 46.84 32.53L47.4 32.25C47.3067 32.25 47.2133 32.2967 47.12 32.39C47.0267 32.4367 46.9333 32.4833 46.84 32.53L46.56 32.67ZM46.21 32.81C46.0233 32.95 45.8367 33.09 45.65 33.23C45.4633 33.3233 45.2533 33.44 45.02 33.58C45.2533 33.4867 45.4633 33.37 45.65 33.23C45.8367 33.09 46.0467 32.95 46.28 32.81H46.21ZM44.39 33.93H44.46L44.67 33.79L44.46 33.86L44.39 33.93ZM43.76 34.35L43.48 34.49C43.5733 34.3967 43.6667 34.35 43.76 34.35ZM43.48 35.61L43.55 35.54H43.48V35.61ZM42.92 35.75C42.8733 35.7967 42.85 35.8433 42.85 35.89L43.06 35.75H42.92ZM42.85 36.38C42.8033 36.38 42.7567 36.4033 42.71 36.45C42.7567 36.45 42.8033 36.4267 42.85 36.38ZM42.43 36.1C42.57 36.1 42.6633 36.0767 42.71 36.03C42.57 36.03 42.4767 36.0533 42.43 36.1ZM42.29 35.26L42.64 34.98C42.5933 35.0267 42.5467 35.05 42.5 35.05L42.29 35.26ZM41.8 36.59C41.8467 36.59 41.8933 36.5667 41.94 36.52H41.8V36.59ZM40.61 37.5C40.5167 37.5 40.4467 37.5233 40.4 37.57L40.61 37.5ZM40.05 37.85H40.19V37.71L40.05 37.85ZM39.77 38.13L39.98 37.85H39.84L39.77 38.13ZM39.98 38.34C39.9333 38.3867 39.91 38.4333 39.91 38.48L39.98 38.41V38.34ZM39.35 38.34L39.49 38.2C39.5367 38.2 39.5833 38.1767 39.63 38.13L39.42 38.2L39.35 38.34ZM39.14 38.62H39.21L39.28 38.48L39.14 38.62ZM38.44 39.04C38.5333 38.9467 38.65 38.9 38.79 38.9L38.93 38.62L38.79 38.83L38.51 38.9L38.44 39.04ZM38.02 38.27L38.23 38.13L38.02 38.2V38.27ZM38.09 39.32C37.95 39.4133 37.8567 39.5067 37.81 39.6C37.7633 39.6467 37.6933 39.7167 37.6 39.81H37.74L38.09 39.32ZM38.02 39.81C38.02 39.9033 37.9967 39.95 37.95 39.95C37.9967 39.95 38.02 39.95 38.02 39.95C38.02 39.9033 38.0433 39.88 38.09 39.88V39.81H38.02ZM37.88 40.02L37.95 40.09V40.02H37.88ZM37.32 40.02L37.46 39.81H37.39L37.32 40.02ZM36.9 40.3C36.9933 40.3 37.0633 40.2767 37.11 40.23H36.9L36.76 40.44L36.9 40.3ZM36.83 40.93C36.83 40.9767 36.8067 41.0233 36.76 41.07L36.9 40.93H36.83ZM36.55 39.39C36.4567 39.53 36.34 39.6467 36.2 39.74C36.1067 39.8333 36.0133 39.9267 35.92 40.02L36.13 39.95C36.2233 39.8567 36.3633 39.7167 36.55 39.53C36.7367 39.3433 36.8767 39.2033 36.97 39.11L36.55 39.39ZM35.85 41.42L36.27 40.93V40.86H36.2L35.92 41.21L35.85 41.42ZM35.78 41.49C35.5933 41.5833 35.4533 41.6767 35.36 41.77L35.78 41.49ZM34.8 41.07L35.29 40.65L35.08 40.72L34.8 41.07ZM35.22 41.98C35.1733 41.98 35.1267 42.0033 35.08 42.05C35.1267 42.05 35.15 42.05 35.15 42.05C35.15 42.0033 35.1733 41.98 35.22 41.98ZM34.31 41.56L34.45 41.42V41.35L34.31 41.56ZM33.54 42.26L33.89 41.91L33.61 42.12L33.54 42.26ZM30.95 45.13C30.9967 44.99 31.09 44.8967 31.23 44.85C31.23 44.7567 31.3 44.64 31.44 44.5L31.72 44.22L31.86 44.08C31.86 43.9867 31.93 43.87 32.07 43.73C32.1167 43.73 32.14 43.7067 32.14 43.66C32.3267 43.66 32.5133 43.5667 32.7 43.38C32.9333 43.1467 33.0967 42.96 33.19 42.82L33.4 42.47V42.4L33.19 42.75V42.82C32.91 42.8667 32.7 42.9833 32.56 43.17C32.4667 43.31 32.3267 43.4733 32.14 43.66L32.07 43.73L31.86 43.87C31.7667 44.0567 31.72 44.1733 31.72 44.22L31.51 44.29L31.44 44.5L31.23 44.64C31.23 44.6867 31.16 44.78 31.02 44.92L30.95 45.13ZM30.25 45.83C30.39 45.7833 30.4833 45.69 30.53 45.55L30.88 45.2H30.74L30.53 45.55L30.25 45.83ZM29.34 47.16L29.55 46.95L29.41 47.02L29.34 47.16ZM29.13 47.3C29.0833 47.3467 29.06 47.4167 29.06 47.51L29.13 47.37L29.27 47.3H29.13ZM28.36 48.35C28.36 48.49 28.2667 48.6067 28.08 48.7L28.29 48.63C28.3367 48.5833 28.36 48.5367 28.36 48.49C28.36 48.4433 28.4067 48.3967 28.5 48.35H28.36ZM24.51 58.5C24.5567 58.4533 24.58 58.3833 24.58 58.29C24.5333 58.3367 24.51 58.4067 24.51 58.5ZM25 57.73L24.79 57.8V57.87L25 57.73ZM25.49 56.47C25.5367 56.47 25.5833 56.4467 25.63 56.4H25.49V56.47ZM26.19 55.49C26.0967 55.49 26.0267 55.5133 25.98 55.56L26.19 55.49ZM27.38 53.25L27.17 53.67L26.96 53.95L26.75 54.09V54.44C26.61 54.5333 26.54 54.6267 26.54 54.72L26.61 54.58L26.82 54.44V54.09L27.03 53.95C27.03 53.95 27.0767 53.8567 27.17 53.67L27.38 53.39V53.25ZM27.73 52.76L27.52 52.83C27.4733 52.8767 27.45 52.9233 27.45 52.97L27.73 52.76ZM27.73 49.61C27.73 49.5633 27.7067 49.54 27.66 49.54C27.66 49.54 27.66 49.5167 27.66 49.47C27.66 49.5167 27.6367 49.5633 27.59 49.61H27.73ZM28.22 52.06C28.2667 51.9667 28.3367 51.8267 28.43 51.64C28.5233 51.4533 28.6167 51.3367 28.71 51.29L28.5 51.36L28.22 51.99L28.01 52.13L27.8 52.55C27.8467 52.4567 27.8933 52.3867 27.94 52.34C27.9867 52.2933 28.0333 52.2233 28.08 52.13L28.22 52.06ZM29.9 49.47L29.34 50.38L29.13 50.52L29.06 50.66L29.41 50.38L29.9 49.47ZM29.97 46.11C30.0167 46.11 30.04 46.11 30.04 46.11C30.04 46.0633 30.0633 46.04 30.11 46.04C30.0633 46.04 30.0167 46.0633 29.97 46.11ZM30.67 48.42L30.46 48.49L30.25 48.98L30.67 48.42ZM30.95 48.14C30.9033 48.14 30.88 48.1633 30.88 48.21L30.95 48.14ZM35.78 43.45H35.71C35.71 43.4967 35.6867 43.52 35.64 43.52C35.64 43.52 35.64 43.5433 35.64 43.59L35.78 43.45ZM37.6 41.7H37.53V41.77L37.6 41.7ZM38.72 40.79C38.72 40.79 38.7667 40.7433 38.86 40.65H38.79C38.79 40.6967 38.7667 40.72 38.72 40.72C38.72 40.72 38.72 40.7433 38.72 40.79ZM46.56 34.98C46.6067 34.98 46.6533 34.9567 46.7 34.91C46.6533 34.91 46.63 34.9333 46.63 34.98C46.63 34.98 46.6067 34.98 46.56 34.98H46.49L46.42 35.05C46.4667 35.05 46.5133 35.0267 46.56 34.98ZM48.8 33.37L48.73 33.44C48.0767 33.6733 47.47 33.9533 46.91 34.28C46.3967 34.56 45.86 34.8633 45.3 35.19C43.06 36.5433 40.89 38.06 38.79 39.74C36.69 41.42 34.7767 43.2633 33.05 45.27C32.6767 45.69 32.3033 46.11 31.93 46.53C31.6033 46.95 31.3233 47.4167 31.09 47.93C30.9967 48.0233 30.95 48.07 30.95 48.07C30.9967 48.07 31.02 48.07 31.02 48.07C31.02 48.0233 31.0433 48 31.09 48V47.93C31.7433 47.4167 32.3033 46.8333 32.77 46.18C33.2833 45.48 33.7967 44.8267 34.31 44.22C35.6633 42.6333 37.2967 41.1167 39.21 39.67C41.1233 38.1767 42.9667 36.8933 44.74 35.82C45.3933 35.4467 46.07 35.0967 46.77 34.77C47.5167 34.3967 48.17 33.9533 48.73 33.44H48.8V33.37ZM39.28 41.49V41.56C39.2333 41.56 39.1867 41.5833 39.14 41.63C39.1867 41.5833 39.21 41.5367 39.21 41.49H39.28ZM38.37 42.26V42.33L38.16 42.54V42.47L38.3 42.26H38.37ZM66.2519 52.55C66.2519 53.81 65.9019 54.9767 65.2019 56.05C64.5485 57.1233 63.6852 58.0567 62.6119 58.85C61.5852 59.5967 60.4419 60.2033 59.1819 60.67C57.9685 61.09 56.7785 61.3 55.6119 61.3C55.4719 61.58 55.4019 61.9767 55.4019 62.49C55.4019 62.9567 55.4019 63.33 55.4019 63.61C55.4019 63.7967 55.4019 64.0767 55.4019 64.45C55.4485 64.8233 55.5185 65.1967 55.6119 65.57C55.7052 65.9433 55.8219 66.27 55.9619 66.55C56.1485 66.83 56.3585 66.97 56.5919 66.97C57.3385 66.97 57.9685 66.76 58.4819 66.34C59.0419 65.92 59.4385 65.3833 59.6719 64.73L59.7419 64.66V64.87C59.7419 65.1967 59.6252 65.5 59.3919 65.78C59.2052 66.0133 59.0652 66.27 58.9719 66.55C59.3452 66.3633 59.6019 66.13 59.7419 65.85C59.8819 65.5233 60.0685 65.1967 60.3019 64.87C60.3952 65.0567 60.4419 65.1733 60.4419 65.22C60.4419 65.4533 60.3719 65.6633 60.2319 65.85C60.0919 65.99 59.9985 66.1767 59.9519 66.41L60.4419 66.48L60.3719 66.69L60.5119 66.76V66.69H60.7219L60.6519 66.55H60.7219L60.7919 66.27H60.8619L61.0019 65.99V66.27C61.1885 66.0833 61.2819 65.85 61.2819 65.57L61.5619 65.22C61.4685 66.2467 61.0252 67.0633 60.2319 67.67C59.4385 68.2767 58.5519 68.58 57.5719 68.58C55.4252 68.58 53.7452 67.9267 52.5319 66.62C51.3652 65.3133 50.7819 63.61 50.7819 61.51C50.7819 59.83 51.0852 58.1733 51.6919 56.54C52.3452 54.9067 53.1619 53.4133 54.1419 52.06C55.7285 49.82 57.8519 48.7 60.5119 48.7C60.8385 48.7 61.1419 48.7233 61.4219 48.77C61.7485 48.8167 62.0752 48.8867 62.4019 48.98L61.0019 46.39L61.5619 46.25C62.9619 46.7167 64.0819 47.51 64.9219 48.63C65.8085 49.7033 66.2519 51.01 66.2519 52.55ZM62.1219 55.14C62.0752 55.1867 62.0519 55.28 62.0519 55.42L61.8419 55.56L62.0519 55.49V55.42L62.1219 55.14ZM64.9219 53.95C64.8285 54.09 64.7119 54.2767 64.5719 54.51C64.4319 54.7433 64.2685 55 64.0819 55.28C63.9419 55.5133 63.8019 55.7467 63.6619 55.98C63.5685 56.2133 63.5219 56.3767 63.5219 56.47C63.8952 56.0967 64.1752 55.7 64.3619 55.28C64.5952 54.86 64.7819 54.4167 64.9219 53.95ZM63.3119 56.61C63.4052 56.61 63.4752 56.5867 63.5219 56.54C63.4285 56.54 63.3585 56.5633 63.3119 56.61ZM63.2419 55.14H63.3119L63.3819 54.93L63.2419 55.14ZM63.2419 56.61C63.2419 56.61 63.1952 56.6567 63.1019 56.75L63.2419 56.61ZM62.8219 53.95C62.9152 53.95 62.9619 53.9033 62.9619 53.81H62.8219V53.95ZM62.4719 54.72C62.5652 54.5333 62.6119 54.4167 62.6119 54.37L62.4719 54.65V54.72ZM62.5419 51.29C61.7485 51.4767 61.0019 51.8267 60.3019 52.34C59.6019 52.8067 58.9719 53.3667 58.4119 54.02C57.8985 54.6733 57.4552 55.3967 57.0819 56.19C56.7085 56.9833 56.4519 57.7533 56.3119 58.5C56.9185 58.4533 57.5952 58.1733 58.3419 57.66C59.0885 57.1467 59.7652 56.5633 60.3719 55.91C60.9785 55.21 61.4919 54.4867 61.9119 53.74C62.3319 52.9467 62.5419 52.2233 62.5419 51.57V51.29ZM57.5719 52.97C57.5252 52.97 57.4552 53.0167 57.3619 53.11L57.6419 52.97V52.9L57.5719 52.97ZM55.7519 53.67C55.7052 53.7167 55.6585 53.7867 55.6119 53.88C55.6119 53.9267 55.5885 53.95 55.5419 53.95H55.6119C55.7052 53.8567 55.7519 53.7633 55.7519 53.67ZM55.3319 54.09C55.2852 54.1833 55.2619 54.2767 55.2619 54.37C55.3085 54.3233 55.3319 54.23 55.3319 54.09ZM53.3719 55.84C53.3252 55.84 53.3019 55.8633 53.3019 55.91H53.3719V55.84ZM53.7219 54.79L53.5119 55.14L53.6519 55.21L53.7219 54.79ZM53.7919 54.65L53.7219 54.72H53.7919V54.65ZM54.7019 58.01C54.6552 58.0567 54.6319 58.1733 54.6319 58.36H54.7019V58.01ZM54.8419 53.11C54.8419 53.0167 54.8419 52.97 54.8419 52.97C54.8885 52.9233 54.9119 52.8533 54.9119 52.76L55.1219 52.69C55.0285 52.69 54.9585 52.7133 54.9119 52.76L54.5619 53.32L54.4219 53.53V53.6C54.3285 53.6933 54.2352 53.81 54.1419 53.95C54.0952 54.0433 54.0252 54.16 53.9319 54.3C54.1652 54.2067 54.3285 53.9733 54.4219 53.6L54.5619 53.32L54.8419 53.11ZM54.9819 54.93V55.07V55V54.93ZM54.9819 57.59C55.2152 56.7967 55.5652 56.0733 56.0319 55.42C56.5452 54.72 56.9652 53.9733 57.2919 53.18C56.7785 53.6933 56.2652 54.37 55.7519 55.21C55.2385 56.05 54.9819 56.8433 54.9819 57.59ZM90.2378 37.78C91.3111 38.0133 92.1745 38.48 92.8278 39.18C93.5278 39.8333 94.0645 40.6267 94.4378 41.56C94.8111 42.4467 95.0678 43.4033 95.2078 44.43C95.3478 45.41 95.4178 46.3667 95.4178 47.3C95.4178 48.2333 95.3245 49.47 95.1378 51.01C94.9511 52.55 94.6478 54.2067 94.2278 55.98C93.8545 57.7533 93.3645 59.5267 92.7578 61.3C92.1978 63.0733 91.5211 64.6833 90.7278 66.13C89.9345 67.5767 89.0245 68.7433 87.9978 69.63C86.9711 70.5633 85.8511 71.03 84.6378 71.03C84.3111 71.03 84.0778 71.0067 83.9378 70.96C82.3045 70.5867 81.2778 69.9333 80.8578 69C80.4845 68.02 80.2978 66.7833 80.2978 65.29C80.2978 64.0767 80.3445 62.8633 80.4378 61.65C80.5311 60.4367 80.5778 59.2233 80.5778 58.01C79.6445 59.3633 78.6645 60.74 77.6378 62.14C76.6578 63.4933 75.6311 64.8 74.5578 66.06C73.6711 67.18 72.5745 67.74 71.2678 67.74C70.7078 67.74 70.1478 67.6467 69.5878 67.46C69.0278 67.2267 68.5145 66.9233 68.0478 66.55C67.6278 66.1767 67.2545 65.7567 66.9278 65.29C66.6478 64.7767 66.5078 64.2167 66.5078 63.61C66.5078 62.8633 66.6711 61.9067 66.9978 60.74C67.3245 59.5733 67.6978 58.3367 68.1178 57.03C68.5845 55.7233 69.0511 54.4633 69.5178 53.25C69.9845 52.0367 70.3345 51.0333 70.5678 50.24C70.7078 49.82 70.8011 49.4 70.8478 48.98C70.8945 48.5133 70.9178 48.07 70.9178 47.65C70.9178 47.4633 70.8711 47.2533 70.7778 47.02C70.7311 46.7867 70.6845 46.5767 70.6378 46.39C70.7311 46.39 70.8478 46.39 70.9878 46.39C71.1278 46.3433 71.2445 46.32 71.3378 46.32C71.7578 46.32 72.2245 46.53 72.7378 46.95C73.2978 47.3233 73.7411 47.65 74.0678 47.93C74.5811 48.4433 74.9545 48.9567 75.1878 49.47C75.4211 49.9833 75.5378 50.6133 75.5378 51.36C75.5378 53.04 75.2111 54.65 74.5578 56.19C73.9045 57.73 73.3445 59.2933 72.8778 60.88C72.7845 61.2533 72.6911 61.5333 72.5978 61.72V61.86C73.1111 61.3467 73.6245 60.7867 74.1378 60.18C74.6978 59.5733 75.2111 58.99 75.6778 58.43C75.8178 58.2433 76.1445 57.8 76.6578 57.1C77.2178 56.3533 77.8011 55.56 78.4078 54.72C79.0145 53.88 79.5511 53.1333 80.0178 52.48C80.5311 51.78 80.8111 51.3833 80.8578 51.29L80.0878 50.31C80.0878 50.0767 80.1578 49.9367 80.2978 49.89C80.4845 49.8433 80.6711 49.82 80.8578 49.82C81.9311 49.82 82.8878 50.24 83.7278 51.08C84.6145 51.92 85.1278 52.8533 85.2678 53.88C85.3611 54.5333 85.4078 55.21 85.4078 55.91C85.4545 56.5633 85.4778 57.2167 85.4778 57.87C85.4778 59.7367 85.3378 61.58 85.0578 63.4C84.9645 64.1467 84.8478 64.87 84.7078 65.57C84.6145 66.27 84.5678 66.9933 84.5678 67.74V68.16C85.6878 67.32 86.7145 65.92 87.6478 63.96C88.5811 61.9533 89.3745 59.8067 90.0278 57.52C90.7278 55.1867 91.2645 52.9 91.6378 50.66C92.0111 48.42 92.1978 46.6 92.1978 45.2C92.1978 43.0067 91.7078 40.9533 90.7278 39.04C90.6345 38.8533 90.5411 38.69 90.4478 38.55C90.4011 38.3633 90.3311 38.1767 90.2378 37.99V37.78ZM70.2878 62.77C70.4745 62.5833 70.6845 62.21 70.9178 61.65C71.1511 61.09 71.3611 60.5067 71.5478 59.9C71.7811 59.2467 71.9911 58.6167 72.1778 58.01C72.3645 57.4033 72.5278 56.9367 72.6678 56.61L72.4578 56.54C72.0845 57.6133 71.7111 58.6633 71.3378 59.69C71.0111 60.7167 70.6611 61.7433 70.2878 62.77ZM78.5478 57.59H78.6178V57.52L78.5478 57.59ZM78.3378 56.33C78.1978 56.47 78.1278 56.5633 78.1278 56.61L78.3378 56.33ZM77.8478 58.29C77.8011 58.3367 77.7778 58.43 77.7778 58.57C77.8245 58.5233 77.8478 58.43 77.8478 58.29ZM76.9378 59.83C76.9378 59.7833 76.9145 59.76 76.8678 59.76L76.9378 59.83ZM80.1578 57.8L80.0878 57.87H80.1578V57.8ZM75.6778 62.84C75.9111 62.56 76.2845 62.0933 76.7978 61.44C77.3578 60.74 77.9178 60.0167 78.4778 59.27C79.0378 58.4767 79.5278 57.7533 79.9478 57.1C80.4145 56.4467 80.6945 56.0033 80.7878 55.77H80.7178C79.8311 56.9367 78.9678 58.1267 78.1278 59.34C77.3345 60.5067 76.5178 61.6733 75.6778 62.84ZM80.4378 53.46C80.4845 53.3667 80.5311 53.2967 80.5778 53.25C80.6711 53.1567 80.7645 53.0633 80.8578 52.97L80.7178 52.9C80.6711 52.9933 80.6011 53.0867 80.5078 53.18C80.4611 53.2733 80.4378 53.3667 80.4378 53.46ZM83.8678 61.86H83.7278L83.3078 65.01C83.3078 65.4767 83.2845 65.8267 83.2378 66.06H83.4478L83.3078 65.01L83.5178 64.87L83.8678 61.86ZM88.4878 64.31L88.4178 64.24V64.45L88.4878 64.31ZM92.3378 50.8C92.3845 50.8467 92.4078 50.9167 92.4078 51.01H92.4778L92.4078 50.8H92.3378ZM92.1978 51.78C92.1978 51.9667 92.2211 52.1067 92.2678 52.2V51.78H92.1978ZM92.1278 53.11C91.8945 53.25 91.7778 53.4367 91.7778 53.67C91.7778 53.8567 91.7545 54.0667 91.7078 54.3L92.1278 53.11L92.2678 52.34C92.1278 52.4333 92.0578 52.5267 92.0578 52.62C92.0578 52.7133 92.0578 52.8067 92.0578 52.9C92.1045 52.9467 92.1278 53.0167 92.1278 53.11ZM91.9178 56.96V57.03C91.9645 57.03 91.9878 57.0067 91.9878 56.96H91.9178ZM91.6378 58.01H91.7078V57.73L91.8478 57.66V57.59L91.6378 57.73V58.01ZM91.4978 55.28C91.4045 55.56 91.3578 55.7467 91.3578 55.84L91.4978 55.28ZM91.0078 60.11H91.0778C91.0778 60.0633 91.0545 60.04 91.0078 60.04V60.11ZM89.4678 61.93C89.3745 62.07 89.2811 62.28 89.1878 62.56L89.4678 61.93ZM90.9378 57.31C90.7978 57.8233 90.6111 58.36 90.3778 58.92C90.1911 59.4333 90.0511 59.9467 89.9578 60.46C90.1445 60.04 90.2845 59.62 90.3778 59.2C90.5178 58.7333 90.6811 58.29 90.8678 57.87L90.9378 57.31ZM92.6178 60.11L92.5478 60.04V60.11H92.6178ZM92.8978 58.99L92.8278 59.06H92.8978V58.99ZM92.4078 58.85C92.7811 57.6367 93.1078 56.4233 93.3878 55.21C93.7145 53.9967 93.9245 52.76 94.0178 51.5L93.8778 51.64C93.4578 53.9267 92.9211 56.19 92.2678 58.43C91.6611 60.6233 90.9145 62.8167 90.0278 65.01C90.2145 64.8233 90.4245 64.45 90.6578 63.89C90.8911 63.33 91.1245 62.7467 91.3578 62.14C91.5911 61.4867 91.8011 60.8567 91.9878 60.25C92.1745 59.6433 92.3145 59.1767 92.4078 58.85ZM94.0178 51.29C94.0645 51.15 94.0878 51.0333 94.0878 50.94C94.1345 50.8 94.1578 50.66 94.1578 50.52H94.0178V51.29ZM94.2978 49.82V49.47H94.1578C94.2045 49.5167 94.2278 49.6333 94.2278 49.82H94.2978Z" fill="white"/>
<defs>
<linearGradient id="paint0_linear" x1="94.5" y1="26" x2="17" y2="88" gradientUnits="userSpaceOnUse">
<stop stop-color="#AE8864"/>
<stop offset="0.462413" stop-color="#F2D5AB"/>
<stop offset="1" stop-color="#AE8864"/>
</linearGradient>
</defs>
</svg>
