<svg width="91" height="100" viewBox="0 0 91 100" fill="none" xmlns="http://www.w3.org/2000/svg">
<path fill-rule="evenodd" clip-rule="evenodd" d="M46.0245 0C53.4896 0 60.2143 3.02283 65.0882 7.89636C69.9621 12.7699 72.9852 19.4941 72.9852 26.9587C72.9852 34.4232 69.9621 41.1474 65.0882 46.021C60.2143 50.8945 53.4896 53.9173 46.0245 53.9173C38.5594 53.9173 31.8346 50.8945 26.9607 46.021C22.0868 41.0857 19.1255 34.3615 19.1255 26.9587C19.1255 19.4941 22.1485 12.7699 27.0224 7.89636C31.8346 3.02283 38.6211 0 46.0245 0ZM64.5329 8.38988C59.8441 3.63973 53.2428 0.740284 46.0245 0.740284C38.8062 0.740284 32.2665 3.70142 27.516 8.38988C22.7655 13.14 19.8658 19.6792 19.8658 26.897C19.8658 34.1147 22.8272 40.6539 27.516 45.4041C32.2665 50.1542 38.8062 53.0537 46.0245 53.0537C53.2428 53.0537 59.7824 50.0925 64.5329 45.4041C69.2835 40.6539 72.1831 34.1147 72.1831 26.897C72.2448 19.6792 69.2835 13.14 64.5329 8.38988Z" fill="url(#paint0_linear)"/>
<path fill-rule="evenodd" clip-rule="evenodd" d="M63.2372 36.8293C53.9212 40.2839 40.8419 37.7546 32.8216 33.3746V33.498V34.9169V35.102V36.6442C42.5077 39.7287 56.6975 41.4561 65.5199 36.3358L65.7666 36.2741H65.5816C66.4453 35.7805 67.1856 35.2253 67.926 34.6084C68.2961 34.2383 68.6663 33.8681 68.9748 33.498C67.6175 35.4721 65.5199 36.891 63.3605 37.8163L63.0521 37.9397C60.029 39.1118 54.4148 40.0372 48.2453 39.9138C47.8751 39.9138 47.5666 39.9138 47.1965 39.8521C46.5795 39.7904 45.9009 39.7287 45.2222 39.667C42.446 39.4203 38.9294 38.8034 37.0168 38.4332C36.0914 38.68 36.0914 40.2839 36.3382 41.0242C36.5849 41.7645 37.0168 42.3814 36.9551 43.1217C37.0785 43.1834 37.2636 43.2451 37.387 43.3685C37.8805 43.6152 38.5592 43.7386 39.1144 43.8003H39.1761C39.2378 43.8003 39.2995 43.8003 39.3612 43.8003H39.4229C39.4846 43.8003 39.4846 43.8003 39.5463 43.8003H39.608C39.6697 43.8003 39.6697 43.8003 39.7314 43.8003H39.7931C39.8548 43.8003 39.8548 43.8003 39.9165 43.8003H39.9782C40.0399 43.8003 40.1016 43.8003 40.1633 43.8003H40.2249H40.2866C40.41 43.8003 40.5334 43.7386 40.6568 43.6769C40.7185 43.6769 40.7185 43.6769 40.7802 43.6152C40.8419 43.5535 40.9653 43.5535 41.027 43.4918C41.027 43.4918 41.0887 43.4918 41.0887 43.4301C41.1504 43.4301 41.1504 43.3685 41.2121 43.3685C41.3355 43.3068 41.7056 43.1217 41.829 43.06C41.8907 43.06 42.0141 43.2451 42.0758 43.3068C42.1375 43.3685 42.1992 43.3685 42.2609 43.4918C42.3226 43.5535 42.446 43.6152 42.5694 43.6152C42.6311 43.6152 42.6927 43.6769 42.7544 43.6769C42.8161 43.6769 42.8778 43.7386 42.9395 43.7386C43.0012 43.7386 43.0629 43.8003 43.1246 43.8003C43.1863 43.8003 43.248 43.8003 43.3097 43.8003C43.3714 43.8003 43.4331 43.8003 43.4948 43.8003C43.5565 43.8003 43.6182 43.8003 43.6799 43.8003C43.9266 43.8003 44.5436 43.7386 44.7904 43.6769C44.8521 43.6769 44.9138 43.6152 44.9755 43.6152H45.0372C45.0988 43.6152 45.0988 43.5535 45.1605 43.5535C45.2222 43.5535 45.2839 43.4918 45.3456 43.4918C45.4073 43.4301 45.5307 43.4301 45.5924 43.3685C45.5924 43.3685 45.6541 43.3685 45.6541 43.3068C45.7158 43.3068 45.7158 43.2451 45.7775 43.2451C46.0243 43.06 46.0243 42.9983 46.0243 42.9983C46.0243 42.9983 46.0243 42.9983 46.0243 43.06C46.0243 43.06 46.086 43.1217 46.1477 43.1217C46.1477 43.1217 46.1477 43.1217 46.2094 43.1834C46.2711 43.1834 46.2711 43.2451 46.3327 43.2451C46.3327 43.2451 46.3327 43.2451 46.3944 43.2451C46.3944 43.2451 46.3944 43.2451 46.4561 43.2451C46.5178 43.3068 46.6412 43.3685 46.7029 43.3685C46.7646 43.3685 46.7646 43.4301 46.8263 43.4301C46.8263 43.4301 46.8263 43.4301 46.888 43.4301C46.9497 43.4301 46.9497 43.4301 47.0114 43.4918C47.0731 43.4918 47.1348 43.4918 47.1965 43.5535C47.2582 43.5535 47.3199 43.5535 47.3816 43.5535C47.4433 43.5535 47.5049 43.5535 47.5666 43.5535C47.6283 43.5535 47.69 43.5535 47.7517 43.5535C47.8751 43.5535 48.0602 43.5535 48.1836 43.4918C48.307 43.4918 48.4921 43.4301 48.6155 43.4301C48.7388 43.3685 48.8622 43.3685 48.9856 43.3068C49.0473 43.3068 49.109 43.2451 49.1707 43.2451C49.2324 43.2451 49.2941 43.1834 49.3558 43.1834C49.4792 43.1217 49.5409 43.06 49.6026 42.9983C49.9727 42.7516 50.0344 42.6282 50.0344 42.6282L50.0961 42.6899C50.1578 42.7516 50.1578 42.7516 50.2195 42.8132C50.2812 42.8749 50.3429 42.9366 50.4046 42.9983C50.4663 43.06 50.5897 43.1217 50.7131 43.1217C50.7748 43.1217 50.8365 43.1834 50.8982 43.1834C50.9599 43.1834 51.0216 43.2451 51.0833 43.2451C51.145 43.2451 51.2066 43.2451 51.2683 43.3068C51.33 43.3068 51.3917 43.3068 51.4534 43.3068C51.5151 43.3068 51.5768 43.3068 51.6385 43.3068C51.7002 43.3068 51.7619 43.3068 51.8236 43.3068C51.947 43.3068 52.1321 43.3068 52.2555 43.2451C52.3788 43.2451 52.5639 43.1834 52.6873 43.1834C52.8107 43.1217 52.9341 43.1217 53.0575 43.06C53.1192 43.06 53.1809 42.9983 53.2426 42.9983C53.3043 42.9983 53.366 42.9366 53.4277 42.9366C53.5511 42.8749 53.6127 42.8132 53.6744 42.7516C53.7361 42.7516 53.7361 42.6899 53.7361 42.6899C53.8595 42.6282 53.9829 42.5048 54.1063 42.3814C54.1063 42.3814 54.1063 42.4431 54.168 42.4431C54.2297 42.5048 54.2297 42.5048 54.2914 42.5665C54.3531 42.6282 54.4148 42.6899 54.4765 42.6899C54.5382 42.7516 54.6616 42.8132 54.785 42.8132C54.8466 42.8132 54.9083 42.8749 54.97 42.8749C55.0317 42.8749 55.0934 42.9366 55.1551 42.9366C55.2168 42.9366 55.2785 42.9366 55.3402 42.9983C55.4019 42.9983 55.4636 42.9983 55.5253 42.9983C55.587 42.9983 55.6487 42.9983 55.7104 42.9983C55.7721 42.9983 55.8338 42.9983 55.8955 42.9983C56.0188 42.9983 56.2039 42.9983 56.3273 42.9366C56.4507 42.9366 56.6358 42.8749 56.7592 42.8749C57.3761 42.6899 57.6846 42.4431 58.1782 42.1347C58.1782 42.1347 58.1782 42.1347 58.2399 42.1963C58.3016 42.258 58.3016 42.258 58.3633 42.3197C58.4249 42.3814 58.4866 42.4431 58.5483 42.5048C58.61 42.5665 58.7334 42.6282 58.8568 42.6282C58.9185 42.6282 58.9802 42.6899 59.0419 42.6899C59.1036 42.6899 59.1653 42.7516 59.227 42.7516C59.2887 42.7516 59.3504 42.7516 59.4121 42.8132C59.4738 42.8132 59.5355 42.8132 59.5972 42.8132C59.6588 42.8132 59.7205 42.8132 59.7822 42.8132C59.8439 42.8132 59.9056 42.8132 59.9673 42.8132C60.0907 42.8132 60.2758 42.8132 60.3992 42.7516C60.5226 42.7516 60.7077 42.6899 60.8311 42.6899C60.9544 42.6282 61.0778 42.6282 61.2012 42.5665C61.2629 42.5665 61.3246 42.5048 61.3863 42.5048C61.448 42.5048 61.5097 42.4431 61.5714 42.4431V42.5048C61.8182 42.3814 62.065 42.258 62.3117 42.1963C63.669 41.4561 64.8412 40.7775 66.0134 39.6053C66.2602 39.3586 66.9389 38.7417 67.309 38.3715C68.4195 36.891 69.53 35.287 70.147 33.498C67.1239 44.2938 57.191 52.0668 45.469 51.82C37.8805 51.6966 31.0941 48.1803 26.6521 42.7516L32.328 43.3068C33.13 41.7645 32.5748 40.5307 30.6622 39.7287C29.2433 40.5307 27.5775 41.0859 25.6649 41.3327H25.6033C22.5802 37.076 20.8527 31.8941 20.9144 26.2802C21.0995 17.0884 26.2202 9.13034 33.6853 4.9354C37.5104 2.77624 42.3226 1.41905 46.7646 1.54243C47.4433 1.54243 48.1836 1.60412 48.8622 1.66581C43.6799 5.49061 38.3741 12.3999 35.5361 18.0137C31.3409 26.4653 32.5748 33.6214 47.1348 36.3358C40.2249 34.5467 37.387 31.1538 37.5721 27.0205C37.8805 19.8028 49.6643 8.45174 55.7721 3.6399C56.6358 4.01004 57.4378 4.38018 58.2399 4.81202C50.8365 10.6109 36.7083 24.3062 40.2249 30.7836C41.7056 33.5597 44.9755 37.0144 53.4894 37.1994C38.189 35.3487 45.8392 24.1828 63.669 8.76019C64.4094 9.43879 65.0263 10.1791 65.6433 10.981C55.7721 19.0008 44.3585 28.9329 48.5538 34.2383C51.2683 37.6313 57.808 38.0631 62.867 36.9527L63.2372 36.8293ZM68.7897 16.163C61.0778 22.4554 54.4148 28.6245 53.4277 32.0791C52.6873 34.4851 55.6487 36.8293 60.029 36.7059C61.5714 36.6442 62.9287 36.5208 64.1626 36.2741C65.7666 35.7805 67.309 34.9786 68.9131 33.5597C69.5917 32.5727 70.147 31.3388 69.8385 30.3518C69.5917 30.4135 69.5917 30.5369 69.53 30.9687C69.53 31.2155 69.4683 31.5856 69.4683 31.8941C69.345 32.6343 69.2833 33.1279 68.9131 33.0045C68.8514 32.8194 68.8514 32.696 68.8514 32.6343C68.8514 32.3876 68.728 32.0791 68.6046 31.8324C68.4812 31.5856 68.4195 31.4622 68.3578 31.0304C68.4195 30.5369 68.8514 29.5498 69.2833 29.3031C69.6534 29.118 69.9619 29.1797 70.2704 29.5498C70.7022 30.4135 70.7022 30.8453 70.5789 31.8324C70.5789 31.9557 70.5789 32.0791 70.5172 32.2642C71.6277 26.7121 71.0107 21.0983 68.7897 16.163ZM26.0968 42.3197L27.4541 42.3814C27.5158 42.3814 27.5158 42.3197 27.5158 42.3197C27.5158 42.258 27.4541 42.1963 27.3924 42.1963L25.9117 42.1347C25.9734 42.1963 26.0351 42.258 26.0968 42.3197ZM32.7599 41.7028L32.8216 42.073C32.8833 42.5048 32.7599 43.3068 32.4514 43.6152L35.351 43.8003L36.2148 43.862C36.3382 43.6769 36.4616 43.4301 36.4616 43.3068C36.5233 42.9983 36.3999 42.5048 36.2148 42.1963C36.0297 41.7645 35.9063 41.5177 35.7829 41.0242C35.4127 39.667 35.9063 38.7417 36.3999 38.4949C35.4744 38.3099 33.6853 37.6929 32.6365 37.3845C32.0195 38.6183 31.6494 39.2969 30.6005 39.9755C31.6494 40.2223 32.4514 40.9008 32.7599 41.7028ZM30.7239 41.7028C30.7239 41.7028 30.7856 41.7028 30.7239 41.7028C30.6622 41.5794 30.5388 41.5177 30.4772 41.4561C30.4155 41.3944 30.3538 41.3944 30.2921 41.3327C30.2304 41.271 30.1687 41.271 30.107 41.2093C30.107 41.2093 30.107 41.271 30.107 41.3327C30.107 41.3944 30.107 41.4561 30.0453 41.5177L29.9836 41.5794C29.9219 41.5794 29.9219 41.5794 29.8602 41.5794C29.7985 41.5794 29.7985 41.5177 29.7368 41.5177C29.7368 41.4561 29.6751 41.4561 29.6751 41.3944C29.6751 41.3327 29.6751 41.271 29.6751 41.2093C29.6751 41.1476 29.6751 41.1476 29.7368 41.0859C29.6751 41.0859 29.6751 41.1476 29.6134 41.2093C29.6134 41.3327 29.6134 41.3944 29.6134 41.4561C29.6134 41.5177 29.6134 41.5794 29.6134 41.6411C29.6751 41.5794 29.7368 41.5794 29.7368 41.5794C29.7985 41.5794 29.7985 41.5794 29.8602 41.5794C29.9219 41.5794 29.9219 41.5794 29.9836 41.5794C30.1687 41.5794 30.2921 41.5794 30.4155 41.6411C30.5388 41.7028 30.6622 41.7028 30.7239 41.7028Z" fill="url(#paint1_linear)"/>
<path fill-rule="evenodd" clip-rule="evenodd" d="M8.82227 83.2816L11.4751 89.9442H11.907L13.8196 85.1323L15.7321 89.9442H16.164L18.8168 83.2816H18.385L16.1023 89.0188L13.8196 83.2816H13.0792L13.5728 84.5771L11.7836 89.0188L9.50091 83.2816H8.82227V83.2816ZM19.1253 87.6616C19.1253 89.0805 20.0507 90.0059 21.4697 90.0059C22.6419 90.0059 23.5674 89.389 23.5674 88.6487H22.9504C22.9504 89.2656 22.2718 89.7591 21.5314 89.7591C20.5443 89.7591 19.8657 88.9571 19.8657 87.8467H23.7524C23.7524 87.785 23.7524 87.7233 23.7524 87.7233C23.7524 86.3044 22.827 85.3174 21.4697 85.3174C20.0507 85.3174 19.1253 86.2427 19.1253 87.6616ZM23.0121 87.5382H19.804C19.8657 86.3661 20.4826 85.6258 21.408 85.6258C22.3335 85.5642 23.0121 86.3661 23.0121 87.5382ZM25.048 89.9442H25.7267V82.7881H25.048V89.9442ZM27.3924 89.9442H28.0711V82.7881H27.3924V89.9442ZM30.4155 89.9442V87.2298C30.4155 86.2427 31.0324 85.5642 31.8962 85.5642C32.7599 85.5642 33.3768 86.2427 33.3768 87.2298V89.9442H34.0555V87.1681C34.0555 86.0577 33.2535 85.3174 32.0812 85.3174C31.2792 85.3174 30.6623 85.6258 30.3538 86.1194L30.2304 85.4408C30.1687 85.3791 30.107 85.3174 30.0453 85.3174H29.7368V89.8825H30.4155V89.9442ZM35.3511 87.6616C35.3511 89.0805 36.2765 90.0059 37.6955 90.0059C38.8677 90.0059 39.7931 89.389 39.7931 88.6487H39.1762C39.1762 89.2656 38.4975 89.7591 37.7572 89.7591C36.7701 89.7591 36.0914 88.9571 36.0914 87.8467H39.9782C39.9782 87.785 39.9782 87.7233 39.9782 87.7233C39.9782 86.3044 39.0528 85.3174 37.6955 85.3174C36.2765 85.3174 35.3511 86.2427 35.3511 87.6616ZM39.2379 87.5382H36.0297C36.0914 86.3661 36.7084 85.6258 37.6338 85.6258C38.5592 85.5642 39.2379 86.3661 39.2379 87.5382ZM44.2968 88.8954C44.2968 89.389 43.7416 89.7591 43.0012 89.7591C42.1375 89.7591 41.5823 89.3273 41.5823 88.7104H40.9036C40.9036 89.5123 41.7057 90.0059 42.9396 90.0059C44.1118 90.0059 44.9138 89.5123 44.9138 88.7104C44.9138 87.8467 43.9884 87.5999 43.248 87.3532C42.3843 87.1064 41.644 86.9213 41.644 86.3661C41.644 85.8726 42.1375 85.5642 42.8162 85.5642C43.6182 85.5642 44.1118 85.996 44.1118 86.6129H44.7904C44.7904 85.8109 44.0501 85.3174 42.8779 85.3174C41.7674 85.3174 41.027 85.8109 41.027 86.5512C41.027 87.4149 41.9524 87.5999 42.8779 87.9084C43.5565 88.0935 44.2968 88.2785 44.2968 88.8954ZM49.1707 88.8954C49.1707 89.389 48.6155 89.7591 47.8751 89.7591C47.0114 89.7591 46.4562 89.3273 46.4562 88.7104H45.7775C45.7775 89.5123 46.5796 90.0059 47.8135 90.0059C48.9857 90.0059 49.7877 89.5123 49.7877 88.7104C49.7877 87.8467 48.8623 87.5999 48.1219 87.3532C47.2582 87.1064 46.5179 86.9213 46.5179 86.3661C46.5179 85.8726 47.0114 85.5642 47.6901 85.5642C48.4921 85.5642 48.9857 85.996 48.9857 86.6129H49.6643C49.6643 85.8109 48.924 85.3174 47.7518 85.3174C46.6412 85.3174 45.9009 85.8109 45.9009 86.5512C45.9009 87.4149 46.8263 87.5999 47.7518 87.9084C48.4304 88.0935 49.1707 88.2785 49.1707 88.8954ZM53.9829 89.9442H54.7233V87.0447H56.6358C56.6358 87.0447 56.6358 87.0447 56.6975 87.0447L58.5484 89.9442H59.3504L57.4379 86.983C58.4867 86.798 59.1653 86.1194 59.1653 85.194C59.1653 84.0219 58.1165 83.2816 56.5741 83.2816H53.9829V89.9442V89.9442ZM54.7233 86.7363V83.6518H56.5741C57.6846 83.6518 58.4867 84.2687 58.4867 85.194C58.4867 86.1194 57.7463 86.7363 56.5741 86.7363H54.7233ZM60.2141 87.6616C60.2141 89.0805 61.1396 90.0059 62.5585 90.0059C63.7307 90.0059 64.6562 89.389 64.6562 88.6487H64.0392C64.0392 89.2656 63.3606 89.7591 62.6202 89.7591C61.6331 89.7591 60.9545 88.9571 60.9545 87.8467H64.8412C64.8412 87.785 64.8412 87.7233 64.8412 87.7233C64.8412 86.3044 63.9158 85.3174 62.5585 85.3174C61.1396 85.3174 60.2141 86.2427 60.2141 87.6616ZM64.1009 87.5382H60.8928C60.9545 86.3661 61.5714 85.6258 62.4968 85.6258C63.4223 85.5642 64.0392 86.3661 64.1009 87.5382ZM69.0982 88.8954C69.0982 89.389 68.5429 89.7591 67.8026 89.7591C66.9389 89.7591 66.3836 89.3273 66.3836 88.7104H65.705C65.705 89.5123 66.507 90.0059 67.7409 90.0059C68.9131 90.0059 69.7151 89.5123 69.7151 88.7104C69.7151 87.8467 68.7897 87.5999 68.0494 87.3532C67.1857 87.1064 66.4453 86.9213 66.4453 86.3661C66.4453 85.8726 66.9389 85.5642 67.6175 85.5642C68.4195 85.5642 68.9131 85.996 68.9131 86.6129H69.5918C69.5918 85.8109 68.8514 85.3174 67.6792 85.3174C66.5687 85.3174 65.8284 85.8109 65.8284 86.5512C65.8284 87.4149 66.7538 87.5999 67.6792 87.9084C68.4195 88.0935 69.0982 88.2785 69.0982 88.8954ZM70.7023 87.6616C70.7023 89.0805 71.6277 90.0059 72.985 90.0059C74.404 90.0059 75.2677 89.0805 75.2677 87.6616C75.2677 86.2427 74.3423 85.3174 72.985 85.3174C71.6277 85.3174 70.7023 86.2427 70.7023 87.6616ZM71.3809 87.6616C71.3809 86.4278 71.9979 85.5642 72.985 85.5642C73.9721 85.5642 74.589 86.3661 74.589 87.6616C74.589 88.8954 73.9721 89.7591 72.985 89.7591C72.0596 89.7591 71.3809 88.8954 71.3809 87.6616ZM76.625 89.9442H77.3036V87.3532C77.3036 86.4895 78.044 85.8726 78.846 85.8726C79.0311 85.8726 79.1545 85.9343 79.1545 85.9343V85.3174C78.2907 85.3174 77.6121 85.6875 77.3036 86.3661L77.1185 85.4408C77.0568 85.3791 76.9951 85.3174 76.9334 85.3174H76.625V89.9442V89.9442ZM79.7714 85.3791V85.6875H80.7585V88.6487C80.7585 89.4506 81.4372 90.0059 82.3009 90.0059C82.9795 90.0059 83.288 89.6357 83.288 89.6357L83.1029 89.4506C83.1029 89.4506 82.9179 89.6974 82.486 89.6974C81.9307 89.6974 81.4372 89.2656 81.4372 88.587V85.6875H83.0412V85.3791H81.4372V84.207H81.1904L80.7585 84.5771V85.3791H79.7714Z" fill="#182C57"/>
<path fill-rule="evenodd" clip-rule="evenodd" d="M34.364 95.7432L34.7959 97.1004L36.2149 96.7919L35.2278 97.8406L36.2149 98.8894L34.7959 98.5809L34.364 99.9381L33.9322 98.5809L32.5132 98.8894L33.5003 97.8406L32.5132 96.7919L33.9322 97.1004L34.364 95.7432ZM57.6847 95.7432L58.1166 97.1004L59.5356 96.7919L58.5484 97.8406L59.5356 98.8894L58.1166 98.5809L57.6847 99.9381L57.2528 98.5809L55.8339 98.8894L56.821 97.8406L55.8339 96.7919L57.2528 97.1004L57.6847 95.7432ZM51.8237 95.7432L52.2556 97.1004L53.6745 96.7919L52.6874 97.8406L53.6745 98.8894L52.2556 98.5809L51.8237 99.9381L51.3918 98.5809L49.9728 98.8894L50.96 97.8406L49.9728 96.7919L51.3918 97.1004L51.8237 95.7432ZM46.0244 95.7432L46.4562 97.1004L47.8752 96.7919L46.8881 97.8406L47.8752 98.8894L46.4562 98.5809L46.0244 99.9381L45.5925 98.5809L44.1735 98.8894L45.1606 97.8406L44.1735 96.7919L45.5925 97.1004L46.0244 95.7432ZM40.225 95.7432L40.6569 97.1004L42.0759 96.7919L41.0888 97.8406L42.0759 98.8894L40.6569 98.5809L40.225 99.9381L39.7932 98.5809L38.3742 98.8894L39.3613 97.8406L38.3742 96.7919L39.7932 97.1004L40.225 95.7432Z" fill="url(#paint2_linear)"/>
<path fill-rule="evenodd" clip-rule="evenodd" d="M0 70.8204C0 74.5218 2.4678 76.9894 6.16949 76.9894C9.87119 76.9894 12.339 74.5218 12.339 70.8204C12.339 67.119 9.87119 64.6514 6.16949 64.6514C2.4678 64.6514 0 67.119 0 70.8204ZM1.35729 70.8204C1.35729 67.4274 3.26983 65.2066 6.16949 65.2066C9.06915 65.2066 10.9817 67.4891 10.9817 70.8204C10.9817 74.2134 9.06915 76.4342 6.16949 76.4342C3.26983 76.4959 1.35729 74.2134 1.35729 70.8204ZM13.141 79.7038H14.0047L14.3749 76.9277H25.1098L25.48 79.7038H26.3437V76.3108H24.4312V64.7747H16.7193L16.4725 69.2164C16.2258 73.288 15.5471 75.8173 14.56 76.2491H13.141V79.7038ZM15.4237 76.2491C16.4725 75.2621 16.9661 72.9179 17.2129 69.1548L17.4597 65.3916H23.1356V76.2491H15.4237ZM29.7986 76.9277L37.9424 66.0086V76.9277H39.238V64.7747H37.9424L29.7369 75.6939V64.7747H28.4414V76.9277H29.7986ZM48.4305 64.6514C44.482 64.6514 42.0142 67.119 42.0142 70.8204C42.0142 74.5218 44.482 76.9894 48.4305 76.9894C51.5769 76.9894 53.8597 75.3855 53.8597 73.2263H52.5641C52.5641 75.077 50.8366 76.4342 48.4305 76.4342C45.3458 76.4342 43.4332 74.1517 43.4332 70.8204C43.4332 67.4274 45.3458 65.2066 48.4305 65.2066C50.7749 65.2066 52.5024 66.5021 52.5024 68.2911H53.798C53.798 66.1936 51.5769 64.6514 48.4305 64.6514ZM62.3736 64.6514C58.4251 64.6514 55.9573 67.119 55.9573 70.8204C55.9573 74.5218 58.4251 76.9894 62.3736 76.9894C65.52 76.9894 67.8027 75.3855 67.8027 73.2263H66.5071C66.5071 75.077 64.7797 76.4342 62.3736 76.4342C59.2888 76.4342 57.3763 74.1517 57.3763 70.8204C57.3763 67.4274 59.2888 65.2066 62.3736 65.2066C64.718 65.2066 66.4454 66.5021 66.4454 68.2911H67.741C67.741 66.1936 65.4583 64.6514 62.3736 64.6514ZM79.5864 76.9277V76.3108H71.8129V71.0672H78.5993V70.4503H71.8129V65.515H79.5864V64.8981H70.5173V77.0511H79.5864V76.9277ZM81.4373 76.9277H82.918L86.3112 71.6841H89.7044V76.9277H91V64.7747H86.2495C83.4732 64.7747 81.5607 66.1936 81.5607 68.2911C81.5607 70.0801 82.8563 71.2522 84.9539 71.5607L81.4373 76.9277ZM82.918 68.2911C82.918 66.5638 84.2753 65.4533 86.3729 65.4533H89.7044V71.0672H86.3729C84.2753 71.0055 82.918 70.0184 82.918 68.2911Z" fill="#182C57"/>
<defs>
<linearGradient id="paint0_linear" x1="84.0225" y1="-4.76619" x2="17.9801" y2="50.3378" gradientUnits="userSpaceOnUse">
<stop stop-color="#F1DBB1"/>
<stop offset="1" stop-color="#9C774C"/>
</linearGradient>
<linearGradient id="paint1_linear" x1="36.211" y1="37.4242" x2="56.6713" y2="15.6452" gradientUnits="userSpaceOnUse">
<stop stop-color="#F1DBB1"/>
<stop offset="0.2965" stop-color="#CAAD80"/>
<stop offset="0.5713" stop-color="#AF8E61"/>
<stop offset="0.8143" stop-color="#A17C51"/>
<stop offset="1" stop-color="#9C774C"/>
</linearGradient>
<linearGradient id="paint2_linear" x1="45.9914" y1="97.072" x2="46.1294" y2="100.591" gradientUnits="userSpaceOnUse">
<stop stop-color="#F1DBB1"/>
<stop offset="1" stop-color="#9C774C"/>
</linearGradient>
</defs>
</svg>
