<svg width="99" height="98" viewBox="0 0 99 98" fill="none" xmlns="http://www.w3.org/2000/svg">
<path fill-rule="evenodd" clip-rule="evenodd" d="M50.0706 0C58.192 0 65.5079 3.2913 70.8103 8.59767C76.1126 13.904 79.4015 21.2255 79.4015 29.353C79.4015 37.4805 76.1126 44.8019 70.8103 50.1083C65.5079 55.4147 58.192 58.706 50.0706 58.706C41.9493 58.706 34.6333 55.4147 29.331 50.1083C24.0286 44.7347 20.8069 37.4133 20.8069 29.353C20.8069 21.2255 24.0957 13.904 29.3981 8.59767C34.6333 3.2913 42.0164 0 50.0706 0ZM70.2062 9.13502C65.1052 3.96299 57.9235 0.806032 50.0706 0.806032C42.2177 0.806032 35.1032 4.03016 29.935 9.13502C24.7669 14.3071 21.6123 21.427 21.6123 29.2858C21.6123 37.1446 24.834 44.2646 29.935 49.4366C35.1032 54.6086 42.2177 57.7656 50.0706 57.7656C57.9235 57.7656 65.0381 54.5415 70.2062 49.4366C75.3743 44.2646 78.5289 37.1446 78.5289 29.2858C78.596 21.427 75.3743 14.3071 70.2062 9.13502Z" fill="url(#paint0_linear)"/>
<path fill-rule="evenodd" clip-rule="evenodd" d="M68.7966 40.1002C58.6617 43.8617 44.4325 41.1077 35.7071 36.3387V36.473V38.0179V38.2194V39.8987C46.2447 43.2571 61.682 45.1379 71.28 39.5628L71.5485 39.4957H71.3471C72.2868 38.9583 73.0922 38.3538 73.8976 37.6821C74.3003 37.2791 74.703 36.8761 75.0386 36.473C73.562 38.6225 71.28 40.1674 68.9308 41.1749L68.5952 41.3092C65.3064 42.5855 59.1986 43.593 52.4868 43.4586C52.0841 43.4586 51.7485 43.4587 51.3457 43.3915C50.6746 43.3243 49.9363 43.2571 49.198 43.19C46.1776 42.9213 42.3518 42.2496 40.2712 41.8466C39.2644 42.1153 39.2644 43.8617 39.5329 44.6677C39.8013 45.4737 40.2712 46.1454 40.2041 46.9515C40.3383 47.0186 40.5396 47.0858 40.6739 47.2201C41.2108 47.4888 41.9491 47.6231 42.5532 47.6903H42.6203C42.6874 47.6903 42.7546 47.6903 42.8217 47.6903H42.8888C42.9559 47.6903 42.9559 47.6903 43.023 47.6903H43.0902C43.1573 47.6903 43.1573 47.6903 43.2244 47.6903H43.2915C43.3586 47.6903 43.3586 47.6903 43.4257 47.6903H43.4929C43.56 47.6903 43.6271 47.6903 43.6942 47.6903H43.7613H43.8285C43.9627 47.6903 44.0969 47.6231 44.2312 47.556C44.2983 47.556 44.2983 47.556 44.3654 47.4888C44.4325 47.4216 44.5668 47.4216 44.6339 47.3545C44.6339 47.3545 44.701 47.3545 44.701 47.2873C44.7681 47.2873 44.7681 47.2201 44.8352 47.2201C44.9695 47.153 45.3722 46.9515 45.5064 46.8843C45.5735 46.8843 45.7078 47.0858 45.7749 47.153C45.842 47.2201 45.9091 47.2201 45.9763 47.3545C46.0434 47.4216 46.1776 47.4888 46.3118 47.4888C46.379 47.4888 46.4461 47.556 46.5132 47.556C46.5803 47.556 46.6474 47.6231 46.7146 47.6231C46.7817 47.6231 46.8488 47.6903 46.9159 47.6903C46.983 47.6903 47.0502 47.6903 47.1173 47.6903C47.1844 47.6903 47.2515 47.6903 47.3186 47.6903C47.3857 47.6903 47.4529 47.6903 47.52 47.6903C47.7885 47.6903 48.4596 47.6231 48.7281 47.556C48.7952 47.556 48.8624 47.4888 48.9295 47.4888H48.9966C49.0637 47.4888 49.0637 47.4216 49.1308 47.4216C49.1979 47.4216 49.2651 47.3545 49.3322 47.3545C49.3993 47.2873 49.5335 47.2873 49.6007 47.2201C49.6007 47.2201 49.6678 47.2201 49.6678 47.153C49.7349 47.153 49.7349 47.0858 49.802 47.0858C50.0705 46.8843 50.0705 46.8171 50.0705 46.8171C50.0705 46.8171 50.0705 46.8171 50.0705 46.8843C50.0705 46.8843 50.1376 46.9515 50.2047 46.9515C50.2047 46.9515 50.2047 46.9515 50.2719 47.0186C50.339 47.0186 50.339 47.0858 50.4061 47.0858C50.4061 47.0858 50.4061 47.0858 50.4732 47.0858C50.4732 47.0858 50.4732 47.0858 50.5403 47.0858C50.6074 47.153 50.7417 47.2201 50.8088 47.2201C50.8759 47.2201 50.8759 47.2873 50.943 47.2873C50.943 47.2873 50.943 47.2873 51.0102 47.2873C51.0773 47.2873 51.0773 47.2873 51.1444 47.3545C51.2115 47.3545 51.2786 47.3545 51.3457 47.4216C51.4129 47.4216 51.48 47.4216 51.5471 47.4216C51.6142 47.4216 51.6813 47.4216 51.7485 47.4216C51.8156 47.4216 51.8827 47.4216 51.9498 47.4216C52.0841 47.4216 52.2854 47.4216 52.4196 47.3545C52.5539 47.3545 52.7552 47.2873 52.8895 47.2873C53.0237 47.2201 53.158 47.2201 53.2922 47.153C53.3593 47.153 53.4264 47.0858 53.4935 47.0858C53.5607 47.0858 53.6278 47.0186 53.6949 47.0186C53.8291 46.9515 53.8963 46.8843 53.9634 46.8171C54.3661 46.5484 54.4332 46.4141 54.4332 46.4141L54.5003 46.4813C54.5674 46.5484 54.5674 46.5484 54.6346 46.6156C54.7017 46.6828 54.7688 46.7499 54.8359 46.8171C54.903 46.8843 55.0373 46.9515 55.1715 46.9515C55.2386 46.9515 55.3057 47.0186 55.3729 47.0186C55.44 47.0186 55.5071 47.0858 55.5742 47.0858C55.6413 47.0858 55.7085 47.0858 55.7756 47.153C55.8427 47.153 55.9098 47.153 55.9769 47.153C56.0441 47.153 56.1112 47.153 56.1783 47.153C56.2454 47.153 56.3125 47.153 56.3796 47.153C56.5139 47.153 56.7152 47.153 56.8495 47.0858C56.9837 47.0858 57.1851 47.0186 57.3193 47.0186C57.4535 46.9515 57.5878 46.9515 57.722 46.8843C57.7891 46.8843 57.8563 46.8171 57.9234 46.8171C57.9905 46.8171 58.0576 46.7499 58.1247 46.7499C58.259 46.6828 58.3261 46.6156 58.3932 46.5484C58.4603 46.5484 58.4603 46.4813 58.4603 46.4813C58.5946 46.4141 58.7288 46.2798 58.863 46.1454C58.863 46.1454 58.863 46.2126 58.9302 46.2126C58.9973 46.2798 58.9973 46.2798 59.0644 46.3469C59.1315 46.4141 59.1986 46.4813 59.2658 46.4813C59.3329 46.5484 59.4671 46.6156 59.6013 46.6156C59.6685 46.6156 59.7356 46.6828 59.8027 46.6828C59.8698 46.6828 59.9369 46.7499 60.0041 46.7499C60.0712 46.7499 60.1383 46.7499 60.2054 46.8171C60.2725 46.8171 60.3396 46.8171 60.4068 46.8171C60.4739 46.8171 60.541 46.8171 60.6081 46.8171C60.6752 46.8171 60.7424 46.8171 60.8095 46.8171C60.9437 46.8171 61.1451 46.8171 61.2793 46.7499C61.4135 46.7499 61.6149 46.6828 61.7491 46.6828C62.4203 46.4813 62.7559 46.2126 63.2929 45.8767C63.2929 45.8767 63.2929 45.8767 63.36 45.9439C63.4271 46.0111 63.4271 46.0111 63.4942 46.0783C63.5613 46.1454 63.6285 46.2126 63.6956 46.2798C63.7627 46.3469 63.8969 46.4141 64.0312 46.4141C64.0983 46.4141 64.1654 46.4813 64.2325 46.4813C64.2996 46.4813 64.3668 46.5484 64.4339 46.5484C64.501 46.5484 64.5681 46.5484 64.6352 46.6156C64.7024 46.6156 64.7695 46.6156 64.8366 46.6156C64.9037 46.6156 64.9708 46.6156 65.038 46.6156C65.1051 46.6156 65.1722 46.6156 65.2393 46.6156C65.3735 46.6156 65.5749 46.6156 65.7091 46.5484C65.8434 46.5484 66.0447 46.4813 66.179 46.4813C66.3132 46.4141 66.4474 46.4141 66.5817 46.3469C66.6488 46.3469 66.7159 46.2798 66.783 46.2798C66.8502 46.2798 66.9173 46.2126 66.9844 46.2126V46.2798C67.2529 46.1454 67.5213 46.0111 67.7898 45.9439C69.2664 45.1379 70.5417 44.399 71.8169 43.1228C72.0854 42.8541 72.8237 42.1824 73.2264 41.7794C74.4346 40.1674 75.6427 38.421 76.3139 36.473C73.0251 48.2277 62.219 56.691 49.4664 56.4223C41.2108 56.288 33.8278 52.4593 28.9952 46.5484L35.1702 47.153C36.0427 45.4737 35.4386 44.1303 33.3579 43.2571C31.8142 44.1303 30.002 44.7349 27.9213 45.0035H27.8542C24.5654 40.3689 22.6861 34.7266 22.7532 28.6142C22.9546 18.606 28.5254 9.94117 36.6468 5.37366C40.8081 3.02273 46.0434 1.54501 50.8759 1.67935C51.6142 1.67935 52.4196 1.74652 53.1579 1.81369C47.52 5.97818 41.7478 13.5011 38.6603 19.6136C34.0963 28.8157 35.4386 36.6074 51.2786 39.5628C43.7613 37.6149 40.6739 33.9206 40.8752 29.4203C41.2108 21.5615 54.0305 9.20231 60.6752 3.9631C61.6149 4.36612 62.4874 4.76914 63.36 5.23932C55.3057 11.5532 39.9356 26.4648 43.7613 33.5176C45.3722 36.5402 48.9295 40.3017 58.1918 40.5032C41.5464 38.4881 49.8691 26.3305 69.2664 9.53816C70.0719 10.277 70.743 11.083 71.4142 11.9563C60.6752 20.6883 48.2583 31.5025 52.8224 37.2791C55.7756 40.9734 62.8902 41.4436 68.3939 40.2345L68.7966 40.1002ZM74.8373 17.5985C66.4474 24.4497 59.1986 31.1667 58.1247 34.9282C57.3193 37.5478 60.541 40.1002 65.3064 39.9658C66.9844 39.8987 68.461 39.7643 69.8034 39.4957C71.5485 38.9583 73.2264 38.0851 74.9715 36.5402C75.7098 35.4655 76.3139 34.1221 75.9783 33.0474C75.7098 33.1146 75.7098 33.2489 75.6427 33.7191C75.6427 33.9878 75.5756 34.3908 75.5756 34.7266C75.4413 35.5327 75.3742 36.07 74.9715 35.9357C74.9044 35.7342 74.9044 35.5998 74.9044 35.5327C74.9044 35.264 74.7702 34.9281 74.6359 34.6595C74.5017 34.3908 74.4346 34.2565 74.3674 33.7863C74.4346 33.2489 74.9044 32.1742 75.3742 31.9055C75.7769 31.704 76.1125 31.7712 76.4481 32.1742C76.918 33.1146 76.918 33.5848 76.7837 34.6595C76.7837 34.7938 76.7837 34.9282 76.7166 35.1297C77.9247 29.0844 77.2535 22.972 74.8373 17.5985ZM28.3912 46.0783L29.8678 46.1454C29.9349 46.1454 29.9349 46.0783 29.9349 46.0783C29.9349 46.0111 29.8678 45.9439 29.8007 45.9439L28.1898 45.8767C28.2569 45.9439 28.324 46.0111 28.3912 46.0783ZM35.64 45.4066L35.7071 45.8096C35.7742 46.2798 35.64 47.153 35.3044 47.4888L38.459 47.6903L39.3986 47.7575C39.5329 47.556 39.6671 47.2873 39.6671 47.153C39.7342 46.8171 39.6 46.2798 39.3986 45.9439C39.1973 45.4737 39.063 45.2051 38.9288 44.6677C38.5261 43.19 39.063 42.1824 39.6 41.9138C38.5932 41.7123 36.6468 41.0406 35.5057 40.7047C34.8346 42.0481 34.4318 42.787 33.2908 43.5258C34.4318 43.7945 35.3044 44.5334 35.64 45.4066ZM33.4251 45.4066C33.4251 45.4066 33.4922 45.4066 33.4251 45.4066C33.3579 45.2722 33.2237 45.2051 33.1566 45.1379C33.0895 45.0707 33.0224 45.0707 32.9552 45.0035C32.8881 44.9364 32.821 44.9364 32.7539 44.8692C32.7539 44.8692 32.7539 44.9364 32.7539 45.0035C32.7539 45.0707 32.7539 45.1379 32.6868 45.2051L32.6196 45.2722C32.5525 45.2722 32.5525 45.2722 32.4854 45.2722C32.4183 45.2722 32.4183 45.2051 32.3512 45.2051C32.3512 45.1379 32.284 45.1379 32.284 45.0707C32.284 45.0035 32.284 44.9364 32.284 44.8692C32.284 44.802 32.2841 44.802 32.3512 44.7349C32.2841 44.7349 32.2841 44.802 32.2169 44.8692C32.2169 45.0035 32.2169 45.0707 32.2169 45.1379C32.2169 45.2051 32.2169 45.2722 32.2169 45.3394C32.2841 45.2722 32.3512 45.2722 32.3512 45.2722C32.4183 45.2722 32.4183 45.2722 32.4854 45.2722C32.5525 45.2722 32.5525 45.2722 32.6196 45.2722C32.821 45.2722 32.9552 45.2722 33.0895 45.3394C33.2237 45.4066 33.3579 45.4066 33.4251 45.4066Z" fill="url(#paint1_linear)"/>
<path fill-rule="evenodd" clip-rule="evenodd" d="M9.5979 90.6785L12.484 97.9328H12.9538L15.0345 92.6935L17.1152 97.9328H17.585L20.4711 90.6785H20.0013L17.5179 96.9252L15.0345 90.6785H14.2291L14.766 92.089L12.8196 96.9252L10.3362 90.6785H9.5979V90.6785ZM20.8067 95.4475C20.8067 96.9924 21.8135 97.9999 23.3572 97.9999C24.6325 97.9999 25.6393 97.3282 25.6393 96.5222H24.9681C24.9681 97.1939 24.2298 97.7312 23.4243 97.7312C22.3504 97.7312 21.6121 96.858 21.6121 95.649H25.8406C25.8406 95.5818 25.8406 95.5147 25.8406 95.5147C25.8406 93.9698 24.8338 92.8951 23.3572 92.8951C21.8135 92.8951 20.8067 93.9026 20.8067 95.4475ZM25.0352 95.3131H21.545C21.6121 94.0369 22.2833 93.2309 23.2901 93.2309C24.2969 93.1637 25.0352 94.0369 25.0352 95.3131ZM27.2501 97.9328H27.9884V90.1411H27.2501V97.9328ZM29.8006 97.9328H30.5389V90.1411H29.8006V97.9328ZM33.0894 97.9328V94.9773C33.0894 93.9026 33.7606 93.1637 34.7003 93.1637C35.6399 93.1637 36.3111 93.9026 36.3111 94.9773V97.9328H37.0494V94.9101C37.0494 93.7011 36.1769 92.8951 34.9016 92.8951C34.0291 92.8951 33.3579 93.2309 33.0223 93.7683L32.8881 93.0294C32.821 92.9622 32.7538 92.8951 32.6867 92.8951H32.3511V97.8656H33.0894V97.9328ZM38.4589 95.4475C38.4589 96.9924 39.4657 97.9999 41.0094 97.9999C42.2847 97.9999 43.2915 97.3282 43.2915 96.5222H42.6203C42.6203 97.1939 41.882 97.7312 41.0765 97.7312C40.0027 97.7312 39.2643 96.858 39.2643 95.649H43.4928C43.4928 95.5818 43.4928 95.5147 43.4928 95.5147C43.4928 93.9698 42.486 92.8951 41.0094 92.8951C39.4657 92.8951 38.4589 93.9026 38.4589 95.4475ZM42.6874 95.3131H39.1972C39.2643 94.0369 39.9355 93.2309 40.9423 93.2309C41.9491 93.1637 42.6874 94.0369 42.6874 95.3131ZM48.1911 96.7909C48.1911 97.3282 47.5871 97.7312 46.7816 97.7312C45.842 97.7312 45.2379 97.2611 45.2379 96.5894H44.4996C44.4996 97.4626 45.3721 97.9999 46.7145 97.9999C47.9898 97.9999 48.8623 97.4626 48.8623 96.5894C48.8623 95.649 47.8555 95.3803 47.0501 95.1116C46.1104 94.843 45.305 94.6415 45.305 94.0369C45.305 93.4996 45.842 93.1637 46.5803 93.1637C47.4528 93.1637 47.9898 93.6339 47.9898 94.3056H48.7281C48.7281 93.4324 47.9227 92.8951 46.6474 92.8951C45.4393 92.8951 44.6338 93.4324 44.6338 94.2384C44.6338 95.1788 45.6406 95.3803 46.6474 95.7162C47.3857 95.9177 48.1911 96.1192 48.1911 96.7909ZM53.4935 96.7909C53.4935 97.3282 52.8894 97.7312 52.084 97.7312C51.1443 97.7312 50.5403 97.2611 50.5403 96.5894H49.802C49.802 97.4626 50.6745 97.9999 52.0169 97.9999C53.2921 97.9999 54.1647 97.4626 54.1647 96.5894C54.1647 95.649 53.1579 95.3803 52.3525 95.1116C51.4128 94.843 50.6074 94.6415 50.6074 94.0369C50.6074 93.4996 51.1443 93.1637 51.8827 93.1637C52.7552 93.1637 53.2921 93.6339 53.2921 94.3056H54.0304C54.0304 93.4324 53.225 92.8951 51.9498 92.8951C50.7416 92.8951 49.9362 93.4324 49.9362 94.2384C49.9362 95.1788 50.943 95.3803 51.9498 95.7162C52.6881 95.9177 53.4935 96.1192 53.4935 96.7909ZM58.7288 97.9328H59.5342V94.7758H61.6149C61.6149 94.7758 61.6149 94.7758 61.682 94.7758L63.6955 97.9328H64.5681L62.4874 94.7086C63.6284 94.5071 64.3667 93.7683 64.3667 92.7607C64.3667 91.4845 63.2257 90.6785 61.5477 90.6785H58.7288V97.9328V97.9328ZM59.5342 94.44V91.0815H61.5477C62.7559 91.0815 63.6284 91.7532 63.6284 92.7607C63.6284 93.7683 62.823 94.44 61.5477 94.44H59.5342ZM65.5077 95.4475C65.5077 96.9924 66.5145 97.9999 68.0582 97.9999C69.3335 97.9999 70.3403 97.3282 70.3403 96.5222H69.6691C69.6691 97.1939 68.9308 97.7312 68.1254 97.7312C67.0515 97.7312 66.3132 96.858 66.3132 95.649H70.5416C70.5416 95.5818 70.5416 95.5147 70.5416 95.5147C70.5416 93.9698 69.5349 92.8951 68.0582 92.8951C66.5145 92.8951 65.5077 93.9026 65.5077 95.4475ZM69.7362 95.3131H66.246C66.3132 94.0369 66.9843 93.2309 67.9911 93.2309C68.9979 93.1637 69.6691 94.0369 69.7362 95.3131ZM75.1728 96.7909C75.1728 97.3282 74.5688 97.7312 73.7633 97.7312C72.8237 97.7312 72.2196 97.2611 72.2196 96.5894H71.4813C71.4813 97.4626 72.3538 97.9999 73.6962 97.9999C74.9715 97.9999 75.844 97.4626 75.844 96.5894C75.844 95.649 74.8372 95.3803 74.0318 95.1116C73.0921 94.843 72.2867 94.6415 72.2867 94.0369C72.2867 93.4996 72.8237 93.1637 73.562 93.1637C74.4345 93.1637 74.9715 93.6339 74.9715 94.3056H75.7098C75.7098 93.4324 74.9043 92.8951 73.6291 92.8951C72.421 92.8951 71.6155 93.4324 71.6155 94.2384C71.6155 95.1788 72.6223 95.3803 73.6291 95.7162C74.4345 95.9177 75.1728 96.1192 75.1728 96.7909ZM76.9179 95.4475C76.9179 96.9924 77.9247 97.9999 79.4013 97.9999C80.945 97.9999 81.8847 96.9924 81.8847 95.4475C81.8847 93.9026 80.8779 92.8951 79.4013 92.8951C77.9247 92.8951 76.9179 93.9026 76.9179 95.4475ZM77.6562 95.4475C77.6562 94.1041 78.3274 93.1637 79.4013 93.1637C80.4752 93.1637 81.1464 94.0369 81.1464 95.4475C81.1464 96.7909 80.4752 97.7312 79.4013 97.7312C78.3945 97.7312 77.6562 96.7909 77.6562 95.4475ZM83.3613 97.9328H84.0996V95.1116C84.0996 94.1713 84.905 93.4996 85.7776 93.4996C85.9789 93.4996 86.1132 93.5668 86.1132 93.5668V92.8951C85.1735 92.8951 84.4352 93.2981 84.0996 94.0369L83.8982 93.0294C83.8311 92.9622 83.764 92.8951 83.6969 92.8951H83.3613V97.9328V97.9328ZM86.7843 92.9622V93.2981H87.8582V96.5222C87.8582 97.3954 88.5965 97.9999 89.5362 97.9999C90.2745 97.9999 90.6101 97.5969 90.6101 97.5969L90.4088 97.3954C90.4088 97.3954 90.2074 97.6641 89.7376 97.6641C89.1335 97.6641 88.5966 97.1939 88.5966 96.455V93.2981H90.3416V92.9622H88.5966V91.686H88.3281L87.8582 92.089V92.9622H86.7843Z" fill="white"/>
<path fill-rule="evenodd" clip-rule="evenodd" d="M0 77.1105C0 81.1406 2.68475 83.8274 6.71186 83.8274C10.739 83.8274 13.4237 81.1406 13.4237 77.1105C13.4237 73.0803 10.739 70.3936 6.71186 70.3936C2.68475 70.3936 0 73.0803 0 77.1105ZM1.47661 77.1105C1.47661 73.4162 3.55729 70.9981 6.71186 70.9981C9.86644 70.9981 11.9471 73.4833 11.9471 77.1105C11.9471 80.8048 9.86644 83.2229 6.71186 83.2229C3.55729 83.29 1.47661 80.8048 1.47661 77.1105ZM14.2963 86.7828H15.2359L15.6386 83.7602H27.3173L27.72 86.7828H28.6597V83.0885H26.579V70.5279H18.1892L17.9207 75.3641C17.6522 79.7972 16.9139 82.5512 15.84 83.0214H14.2963V86.7828ZM16.7797 83.0214C17.9207 81.9467 18.4576 79.3942 18.7261 75.2969L18.9946 71.1996H25.1695V83.0214H16.7797ZM32.4183 83.7602L41.278 71.8713V83.7602H42.6875V70.5279H41.278L32.3512 82.4168V70.5279H30.9417V83.7602H32.4183ZM52.6881 70.3936C48.3925 70.3936 45.7078 73.0803 45.7078 77.1105C45.7078 81.1406 48.3925 83.8274 52.6881 83.8274C56.1112 83.8274 58.5946 82.081 58.5946 79.7301H57.1851C57.1851 81.7452 55.3058 83.2229 52.6881 83.2229C49.3322 83.2229 47.2515 80.7376 47.2515 77.1105C47.2515 73.4162 49.3322 70.9981 52.6881 70.9981C55.2386 70.9981 57.118 72.4086 57.118 74.3565H58.5275C58.5275 72.0728 56.1112 70.3936 52.6881 70.3936ZM67.8569 70.3936C63.5614 70.3936 60.8766 73.0803 60.8766 77.1105C60.8766 81.1406 63.5614 83.8274 67.8569 83.8274C71.28 83.8274 73.7634 82.081 73.7634 79.7301H72.3539C72.3539 81.7452 70.4746 83.2229 67.8569 83.2229C64.501 83.2229 62.4203 80.7376 62.4203 77.1105C62.4203 73.4162 64.501 70.9981 67.8569 70.9981C70.4075 70.9981 72.2868 72.4086 72.2868 74.3565H73.6963C73.6963 72.0728 71.2129 70.3936 67.8569 70.3936ZM86.5831 83.7602V83.0885H78.1261V77.3792H85.5092V76.7075H78.1261V71.3339H86.5831V70.6622H76.7166V83.8946H86.5831V83.7602ZM88.5966 83.7602H90.2075L93.899 78.0508H97.5905V83.7602H99V70.5279H93.8319C90.8115 70.5279 88.7308 72.0728 88.7308 74.3565C88.7308 76.3044 90.1403 77.5807 92.4224 77.9165L88.5966 83.7602ZM90.2075 74.3565C90.2075 72.4758 91.6841 71.2668 93.9661 71.2668H97.5905V77.3792H93.9661C91.6841 77.312 90.2075 76.2373 90.2075 74.3565Z" fill="white"/>
<defs>
<linearGradient id="paint0_linear" x1="91.4091" y1="-5.1895" x2="19.5119" y2="54.7499" gradientUnits="userSpaceOnUse">
<stop stop-color="#F1DBB1"/>
<stop offset="1" stop-color="#9C774C"/>
</linearGradient>
<linearGradient id="paint1_linear" x1="39.3945" y1="40.7479" x2="61.6731" y2="17.053" gradientUnits="userSpaceOnUse">
<stop stop-color="#F1DBB1"/>
<stop offset="0.2965" stop-color="#CAAD80"/>
<stop offset="0.5713" stop-color="#AF8E61"/>
<stop offset="0.8143" stop-color="#A17C51"/>
<stop offset="1" stop-color="#9C774C"/>
</linearGradient>
</defs>
</svg>
