<svg width="80" height="80" viewBox="0 0 80 80" fill="none" xmlns="http://www.w3.org/2000/svg">
<path d="M39.9996 64.6146C24.6309 64.6146 10.0917 55.7783 0.109871 40.3713C-0.0366236 40.1451 -0.0366236 39.854 0.109871 39.6277C10.0917 24.2206 24.6309 15.3843 39.9996 15.3843C55.3684 15.3843 69.9078 24.2206 79.8894 39.6277C80.0354 39.8538 80.0354 40.1449 79.8894 40.3713C69.9078 55.7783 55.3684 64.6146 39.9996 64.6146ZM1.50012 39.9995C11.2164 54.7799 25.2271 63.2471 39.9996 63.2471C54.7723 63.2471 68.783 54.7799 78.4991 39.9995C68.7828 25.2191 54.7723 16.7518 39.9996 16.7518C25.2271 16.7518 11.2164 25.2191 1.50012 39.9995Z" fill="white"/>
<path d="M40.333 64.6151C26.8726 64.6151 15.9219 53.5728 15.9219 39.9999C15.9219 26.4271 26.8727 15.3848 40.333 15.3848C53.7932 15.3848 64.744 26.4271 64.744 39.9999C64.744 53.5728 53.7932 64.6151 40.333 64.6151ZM40.333 16.7523C27.6266 16.7523 17.2894 27.1811 17.2894 39.9999C17.2894 52.8186 27.6267 63.2476 40.333 63.2476C53.0392 63.2476 63.3765 52.8186 63.3765 39.9999C63.3765 27.1811 53.0392 16.7523 40.333 16.7523Z" fill="white"/>
<path d="M40.333 50.9407C34.349 50.9407 29.4805 46.0331 29.4805 40.0006C29.4805 33.9682 34.3488 29.0605 40.333 29.0605C46.3173 29.0605 51.1856 33.9682 51.1856 40.0006C51.1856 46.0331 46.3173 50.9407 40.333 50.9407ZM40.333 30.4281C35.103 30.4281 30.848 34.7224 30.848 40.0006C30.848 45.279 35.103 49.5732 40.333 49.5732C45.5634 49.5732 49.8181 45.279 49.8181 40.0006C49.8181 34.7224 45.5634 30.4281 40.333 30.4281Z" fill="white"/>
<path d="M40.3365 11.6238C39.9589 11.6238 39.6527 11.3177 39.6527 10.9401V0.683755C39.6527 0.306151 39.9589 0 40.3365 0C40.7141 0 41.0202 0.306151 41.0202 0.683755V10.9401C41.0202 11.3177 40.7141 11.6238 40.3365 11.6238Z" fill="white"/>
<path d="M45.4195 6.49584C45.2436 6.49584 45.0675 6.42832 44.9337 6.29345L40.3351 1.65503L35.7362 6.29345C35.4703 6.56166 35.0375 6.56354 34.7691 6.29755C34.5009 6.03175 34.4991 5.59876 34.765 5.33055L39.8494 0.202391C39.9778 0.0729908 40.1527 0 40.3349 0C40.5171 0 40.6922 0.0728199 40.8206 0.202391L45.905 5.33055C46.1708 5.59876 46.1689 6.03175 45.901 6.29755C45.7675 6.42986 45.5935 6.49584 45.4195 6.49584Z" fill="white"/>
<path d="M40.337 79.9998C39.9593 79.9998 39.6532 79.6937 39.6532 79.3161V69.0597C39.6532 68.6821 39.9593 68.376 40.337 68.376C40.7146 68.376 41.0207 68.6821 41.0207 69.0597V79.3161C41.0207 79.6937 40.7146 79.9998 40.337 79.9998Z" fill="white"/>
<path d="M40.3354 79.9994C40.1532 79.9994 39.9783 79.9266 39.8499 79.797L34.7655 74.6689C34.4996 74.4007 34.5014 73.9673 34.7696 73.7019C35.0378 73.4355 35.4707 73.4378 35.7366 73.7056L40.3356 78.3444L44.9343 73.7056C45.2003 73.4376 45.6331 73.4357 45.9012 73.7019C46.169 73.9678 46.1713 74.4007 45.9051 74.6689L40.8207 79.797C40.6927 79.9266 40.5176 79.9994 40.3354 79.9994Z" fill="white"/>
</svg>
