<svg width="77" height="77" viewBox="0 0 77 77" fill="none" xmlns="http://www.w3.org/2000/svg">
<path fill-rule="evenodd" clip-rule="evenodd" d="M64.9924 54.0391C50.687 59.3285 30.6027 55.4559 18.2868 48.7497V48.9387V51.1111V51.3944V53.7558C33.1606 58.4784 54.9502 61.1231 68.4977 53.2835L68.8766 53.189H68.5924C69.9187 52.4334 71.0556 51.5833 72.1924 50.6388C72.7609 50.0721 73.3293 49.5054 73.803 48.9387C71.7188 51.9612 68.4977 54.1336 65.1819 55.5504L64.7082 55.7393C60.066 57.5339 51.4449 58.9507 41.9712 58.7618C41.4027 58.7618 40.9291 58.7618 40.3606 58.6673C39.4133 58.5729 38.3711 58.4784 37.329 58.384C33.0658 58.0062 27.6658 57.0616 24.7289 56.4949C23.3079 56.8727 23.3079 59.3285 23.6868 60.4619C24.0658 61.5954 24.7289 62.5399 24.6342 63.6734C24.8237 63.7678 25.1079 63.8623 25.2974 64.0512C26.0553 64.429 27.0974 64.6179 27.95 64.7123H28.0448C28.1395 64.7123 28.2342 64.7123 28.329 64.7123H28.4237C28.5184 64.7123 28.5184 64.7123 28.6132 64.7123H28.7079C28.8027 64.7123 28.8027 64.7123 28.8974 64.7123H28.9921C29.0869 64.7123 29.0869 64.7123 29.1816 64.7123H29.2763C29.3711 64.7123 29.4658 64.7123 29.5606 64.7123H29.6553H29.75C29.9395 64.7123 30.129 64.6179 30.3185 64.5234C30.4132 64.5234 30.4132 64.5234 30.5079 64.429C30.6027 64.3345 30.7921 64.3345 30.8869 64.2401C30.8869 64.2401 30.9816 64.2401 30.9816 64.1456C31.0764 64.1456 31.0764 64.0512 31.1711 64.0512C31.3606 63.9567 31.929 63.6734 32.1185 63.5789C32.2132 63.5789 32.4027 63.8623 32.4974 63.9567C32.5922 64.0512 32.6869 64.0512 32.7816 64.2401C32.8764 64.3345 33.0658 64.429 33.2553 64.429C33.3501 64.429 33.4448 64.5234 33.5395 64.5234C33.6343 64.5234 33.729 64.6179 33.8237 64.6179C33.9185 64.6179 34.0132 64.7123 34.108 64.7123C34.2027 64.7123 34.2974 64.7123 34.3922 64.7123C34.4869 64.7123 34.5816 64.7123 34.6764 64.7123C34.7711 64.7123 34.8659 64.7123 34.9606 64.7123C35.3395 64.7123 36.2869 64.6179 36.6659 64.5234C36.7606 64.5234 36.8553 64.429 36.9501 64.429H37.0448C37.1396 64.429 37.1396 64.3345 37.2343 64.3345C37.329 64.3345 37.4238 64.2401 37.5185 64.2401C37.6132 64.1456 37.8027 64.1456 37.8975 64.0512C37.8975 64.0512 37.9922 64.0512 37.9922 63.9567C38.0869 63.9567 38.0869 63.8623 38.1817 63.8623C38.5606 63.5789 38.5606 63.4845 38.5606 63.4845C38.5606 63.4845 38.5606 63.4845 38.5606 63.5789C38.5606 63.5789 38.6554 63.6734 38.7501 63.6734C38.7501 63.6734 38.7501 63.6734 38.8448 63.7678C38.9396 63.7678 38.9396 63.8623 39.0343 63.8623C39.0343 63.8623 39.0343 63.8623 39.129 63.8623C39.129 63.8623 39.129 63.8623 39.2238 63.8623C39.3185 63.9567 39.508 64.0512 39.6027 64.0512C39.6975 64.0512 39.6975 64.1456 39.7922 64.1456C39.7922 64.1456 39.7922 64.1456 39.8869 64.1456C39.9817 64.1456 39.9817 64.1456 40.0764 64.2401C40.1712 64.2401 40.2659 64.2401 40.3606 64.3345C40.4554 64.3345 40.5501 64.3345 40.6448 64.3345C40.7396 64.3345 40.8343 64.3345 40.9291 64.3345C41.0238 64.3345 41.1185 64.3345 41.2133 64.3345C41.4027 64.3345 41.687 64.3345 41.8764 64.2401C42.0659 64.2401 42.3501 64.1456 42.5396 64.1456C42.7291 64.0512 42.9185 64.0512 43.108 63.9567C43.2028 63.9567 43.2975 63.8623 43.3922 63.8623C43.487 63.8623 43.5817 63.7678 43.6764 63.7678C43.8659 63.6734 43.9607 63.5789 44.0554 63.4845C44.6238 63.1066 44.7186 62.9177 44.7186 62.9177L44.8133 63.0122C44.908 63.1066 44.908 63.1066 45.0028 63.2011C45.0975 63.2955 45.1922 63.39 45.287 63.4845C45.3817 63.5789 45.5712 63.6734 45.7607 63.6734C45.8554 63.6734 45.9501 63.7678 46.0449 63.7678C46.1396 63.7678 46.2344 63.8623 46.3291 63.8623C46.4238 63.8623 46.5186 63.8623 46.6133 63.9567C46.708 63.9567 46.8028 63.9567 46.8975 63.9567C46.9923 63.9567 47.087 63.9567 47.1817 63.9567C47.2765 63.9567 47.3712 63.9567 47.4659 63.9567C47.6554 63.9567 47.9396 63.9567 48.1291 63.8623C48.3186 63.8623 48.6028 63.7678 48.7923 63.7678C48.9817 63.6734 49.1712 63.6734 49.3607 63.5789C49.4554 63.5789 49.5502 63.4845 49.6449 63.4845C49.7396 63.4845 49.8344 63.39 49.9291 63.39C50.1186 63.2955 50.2133 63.2011 50.3081 63.1066C50.4028 63.1066 50.4028 63.0122 50.4028 63.0122C50.5923 62.9177 50.7818 62.7288 50.9712 62.5399C50.9712 62.5399 50.9712 62.6344 51.066 62.6344C51.1607 62.7288 51.1607 62.7288 51.2554 62.8233C51.3502 62.9177 51.4449 63.0122 51.5397 63.0122C51.6344 63.1066 51.8239 63.2011 52.0133 63.2011C52.1081 63.2011 52.2028 63.2955 52.2976 63.2955C52.3923 63.2955 52.487 63.39 52.5818 63.39C52.6765 63.39 52.7712 63.39 52.866 63.4845C52.9607 63.4845 53.0555 63.4845 53.1502 63.4845C53.2449 63.4845 53.3397 63.4845 53.4344 63.4845C53.5291 63.4845 53.6239 63.4845 53.7186 63.4845C53.9081 63.4845 54.1923 63.4845 54.3818 63.39C54.5713 63.39 54.8555 63.2955 55.0449 63.2955C55.9923 63.0122 56.466 62.6344 57.2239 62.1621C57.2239 62.1621 57.2239 62.1621 57.3186 62.2566C57.4134 62.351 57.4134 62.351 57.5081 62.4455C57.6029 62.5399 57.6976 62.6344 57.7923 62.7288C57.8871 62.8233 58.0765 62.9177 58.266 62.9177C58.3608 62.9177 58.4555 63.0122 58.5502 63.0122C58.645 63.0122 58.7397 63.1066 58.8344 63.1066C58.9292 63.1066 59.0239 63.1066 59.1187 63.2011C59.2134 63.2011 59.3081 63.2011 59.4029 63.2011C59.4976 63.2011 59.5923 63.2011 59.6871 63.2011C59.7818 63.2011 59.8766 63.2011 59.9713 63.2011C60.1608 63.2011 60.445 63.2011 60.6345 63.1066C60.8239 63.1066 61.1081 63.0122 61.2976 63.0122C61.4871 62.9177 61.6766 62.9177 61.866 62.8233C61.9608 62.8233 62.0555 62.7288 62.1503 62.7288C62.245 62.7288 62.3397 62.6344 62.4345 62.6344V62.7288C62.8134 62.5399 63.1924 62.351 63.5713 62.2566C65.6555 61.1231 67.4556 60.0841 69.2556 58.2895C69.6345 57.9117 70.6766 56.9672 71.2451 56.4005C72.9503 54.1336 74.6556 51.6778 75.603 48.9387C70.9608 65.468 55.7081 77.3691 37.708 76.9913C26.0553 76.8024 15.6341 71.4185 8.81304 63.1066L17.5289 63.9567C18.7605 61.5954 17.9078 59.7063 14.971 58.4784C12.792 59.7063 10.2341 60.5564 7.29724 60.9342H7.2025C2.56036 54.4169 -0.0922835 46.4829 0.00245401 37.8876C0.286667 23.8141 8.14988 11.6296 19.6131 5.20681C25.4868 1.90095 32.8764 -0.177024 39.6975 0.0118829C40.7396 0.0118829 41.8764 0.106336 42.9185 0.200789C34.9606 6.05689 26.8132 16.6356 22.4552 25.2309C16.0131 38.171 17.9078 49.1276 40.2659 53.2835C29.75 50.261 25.3921 44.9716 25.6763 38.6432C26.0553 27.8756 44.1501 10.4962 53.4344 3.12884C54.7607 3.69556 55.9923 4.26228 57.2239 4.92345C45.8554 13.8021 24.1605 34.7707 29.5606 44.6883C31.8343 48.9387 36.8553 54.228 49.9291 54.5114C26.4342 51.6778 38.1817 34.5818 65.5608 10.9685C66.6977 12.0074 67.645 13.1409 68.5924 14.3688C53.4344 26.6477 35.908 41.8547 42.3501 49.9776C46.5186 55.1726 56.5607 55.8337 64.3292 54.1336L64.9924 54.0391ZM73.5188 22.3028C61.6766 32.0315 51.4449 41.4768 49.9291 46.6718C48.7923 50.3554 53.3397 53.9447 60.066 53.7558C62.4345 53.6613 64.5187 53.4724 66.4134 53.0946C68.8766 52.339 71.2451 51.1111 73.7082 48.9387C74.7503 47.4274 75.603 45.5383 75.1293 44.0271C74.7503 44.1215 74.7503 44.3104 74.6556 44.9716C74.6556 45.3494 74.5609 45.9161 74.5609 46.3884C74.3714 47.5219 74.2767 48.2775 73.7082 48.0886C73.6135 47.8052 73.6135 47.6163 73.6135 47.5219C73.6135 47.144 73.424 46.6718 73.2345 46.294C73.0451 45.9161 72.9503 45.7272 72.8556 45.0661C72.9503 44.3104 73.6135 42.7992 74.2767 42.4214C74.8451 42.138 75.3188 42.2325 75.7925 42.7992C76.4556 44.1215 76.4556 44.7827 76.2662 46.294C76.2662 46.4829 76.2662 46.6718 76.1714 46.9551C77.8767 38.5488 76.9293 29.8591 73.5188 22.3028ZM7.9604 62.4455L10.0446 62.5399C10.1394 62.5399 10.1394 62.4455 10.1394 62.4455C10.1394 62.351 10.0446 62.2566 9.94989 62.2566L7.67619 62.1621C7.77093 62.2566 7.86566 62.351 7.9604 62.4455ZM18.1921 61.4065L18.2868 61.9732C18.3815 62.6344 18.1921 63.8623 17.7184 64.3345L22.171 64.6179L23.4974 64.7123C23.6868 64.429 23.8763 64.0512 23.8763 63.8623C23.971 63.39 23.7816 62.6344 23.4974 62.1621C23.2131 61.5009 23.0237 61.1231 22.8342 60.3675C22.2658 58.2895 23.0237 56.8727 23.7816 56.4949C22.3605 56.2115 19.6131 55.267 18.0026 54.7948C17.0552 56.6838 16.4868 57.7228 14.8762 58.7618C16.4868 59.1396 17.7184 60.1786 18.1921 61.4065ZM15.0657 61.5009C15.0657 61.4065 15.1605 61.4065 15.0657 61.5009C14.971 61.312 14.7815 61.2176 14.6868 61.1231C14.592 61.0287 14.4973 61.0287 14.4026 60.9342C14.3078 60.8398 14.3078 60.7453 14.2131 60.7453C14.2131 60.7453 14.2131 60.8398 14.2131 60.9342C14.2131 61.0287 14.2131 61.1231 14.1183 61.2176L14.0236 61.312C13.9289 61.312 13.9289 61.312 13.8341 61.312C13.7394 61.312 13.7394 61.2176 13.6447 61.2176C13.6447 61.1231 13.5499 61.1231 13.5499 61.0287C13.5499 60.9342 13.5499 60.8398 13.5499 60.7453C13.5499 60.6509 13.5499 60.6508 13.6447 60.5564C13.5499 60.5564 13.5499 60.6509 13.4552 60.7453C13.3604 60.8398 13.3604 60.9342 13.3604 61.0287C13.3604 61.1231 13.3604 61.2176 13.3604 61.312C13.4552 61.2176 13.5499 61.2176 13.5499 61.2176C13.6447 61.2176 13.6447 61.2176 13.7394 61.2176C13.8341 61.2176 13.8341 61.2176 13.9289 61.2176C14.2131 61.2176 14.4026 61.2176 14.592 61.312C14.7815 61.4065 14.971 61.4065 15.0657 61.5009Z" fill="url(#paint0_linear)"/>
<defs>
<linearGradient id="paint0_linear" x1="23.4916" y1="54.9086" x2="54.8121" y2="21.4713" gradientUnits="userSpaceOnUse">
<stop stop-color="#F1DBB1"/>
<stop offset="0.2965" stop-color="#CAAD80"/>
<stop offset="0.5713" stop-color="#AF8E61"/>
<stop offset="0.8143" stop-color="#A17C51"/>
<stop offset="1" stop-color="#9C774C"/>
</linearGradient>
</defs>
</svg>
