<svg width="228" height="228" viewBox="0 0 228 228" fill="none" xmlns="http://www.w3.org/2000/svg">
<path d="M212.171 116.081L216.47 116.297C216.394 116.854 216.344 117.524 216.322 117.971C216.184 120.704 217.813 122.083 219.635 122.175C221.377 122.262 223.15 121.406 223.31 118.21C223.346 117.507 223.394 115.907 223.425 115.284L212.239 114.723L212.171 116.081ZM222.026 118.274C221.937 120.048 221.049 120.804 219.723 120.737C218.317 120.667 217.52 119.634 217.602 117.988C217.63 117.428 217.689 116.903 217.764 116.362L222.079 116.578C222.068 117.106 222.048 117.826 222.026 118.274Z" fill="#1E3056"/>
<path d="M211.54 125.358L210.521 131.757L211.785 131.958L212.59 126.902L216.287 127.491L215.583 131.915L216.847 132.116L217.551 127.692L221.122 128.26L220.343 133.159L221.607 133.36L222.6 127.118L211.54 125.358Z" fill="#1E3056"/>
<path d="M207.738 142.907L207.362 144.214L218.127 147.307L218.502 146L213.843 144.661L215.544 138.741L220.204 140.079L220.579 138.772L209.815 135.679L209.439 136.986L214.314 138.387L212.613 144.308L207.738 142.907Z" fill="#1E3056"/>
<path d="M211.407 150.045C208.299 148.648 205.143 149.931 203.812 152.893C202.48 155.856 203.687 159.1 206.723 160.465C209.831 161.862 212.987 160.579 214.318 157.617C215.683 154.582 214.37 151.377 211.407 150.045ZM210.817 151.359C213.195 152.428 214.148 154.874 213.151 157.092C212.167 159.281 209.692 160.221 207.313 159.151C205.008 158.115 203.929 155.753 204.979 153.418C205.963 151.229 208.497 150.316 210.817 151.359Z" fill="#1E3056"/>
<path d="M199.821 161.509C199.45 162.051 198.71 163.192 198.189 164.037C196.973 166.012 196.889 168.009 198.824 169.2C200.132 170.006 201.382 169.685 202.302 168.618L202.329 168.634C202.067 169.732 202.331 170.89 203.53 171.628C204.851 172.442 206.373 172.29 207.774 170.014C208.32 169.129 209.017 167.905 209.331 167.365L199.821 161.509ZM202.492 166.874C201.645 168.25 200.613 168.705 199.605 168.084C198.434 167.363 198.373 166.179 199.237 164.776C199.573 164.231 199.978 163.635 200.198 163.338L203.44 165.335L202.492 166.874ZM206.701 169.316C205.921 170.583 204.979 170.923 203.984 170.311C202.949 169.673 202.902 168.498 203.523 167.49L204.462 165.964L207.541 167.86C207.345 168.209 207.012 168.812 206.701 169.316Z" fill="#1E3056"/>
<path d="M194.555 170.059L193.698 171.135L195.464 174.362L192.284 178.355L188.733 177.367L187.826 178.506L199.637 181.758L200.365 180.844L194.555 170.059ZM198.612 180.143L193.614 178.739L196.126 175.585L198.612 180.143Z" fill="#1E3056"/>
<path d="M185.758 180.824L179.308 187.044L177.865 185.546L176.943 186.435L179.276 188.854L180.37 187.799L187.256 194.939L188.235 193.995L181.349 186.855L185.668 182.69L192.554 189.83L193.533 188.886L185.758 180.824Z" fill="#1E3056"/>
<path d="M174.998 190.724L174.729 201.969L169.484 194.704L168.382 195.5L174.937 204.581L175.91 203.879L176.179 192.634L181.424 199.899L182.526 199.103L175.971 190.022L174.998 190.724Z" fill="#1E3056"/>
<path d="M159.519 200.712L158.323 201.36L163.661 211.206C164.237 210.894 165.329 210.357 165.99 209.998C168.649 208.557 169.022 206.426 168.062 204.653C167.299 203.247 165.86 202.807 164.626 202.948L165.258 197.601L163.908 198.333L163.344 203.37L161.501 204.369L159.519 200.712ZM164.095 204.419C165.029 204.095 166.269 204.369 166.834 205.41C167.467 206.577 167.139 207.92 165.605 208.751C165.183 208.98 164.577 209.272 164.246 209.433L162.111 205.494L164.095 204.419Z" fill="#1E3056"/>
<path d="M141.869 207.939L142.995 212.093C142.442 212.193 141.789 212.354 141.357 212.471C138.716 213.186 137.909 215.162 138.386 216.923C138.842 218.606 140.205 220.027 143.294 219.19C143.973 219.006 145.509 218.557 146.112 218.393L143.182 207.583L141.869 207.939ZM142.836 217.988C141.121 218.453 140.127 217.843 139.78 216.562C139.412 215.203 140.147 214.125 141.738 213.694C142.279 213.547 142.797 213.44 143.334 213.344L144.464 217.514C143.959 217.667 143.268 217.871 142.836 217.988Z" fill="#1E3056"/>
<path d="M132.987 210.182L126.587 211.2L126.788 212.464L131.845 211.659L132.433 215.357L128.009 216.061L128.21 217.325L132.634 216.621L133.203 220.192L128.305 220.972L128.506 222.236L134.747 221.242L132.987 210.182Z" fill="#1E3056"/>
<path d="M115.115 212.019L113.756 212.072L114.188 223.264L115.547 223.211L115.36 218.367L121.515 218.129L121.702 222.973L123.061 222.921L122.629 211.729L121.27 211.782L121.466 216.85L115.31 217.088L115.115 212.019Z" fill="#1E3056"/>
<path d="M109.153 217.703C109.507 214.313 107.301 211.718 104.07 211.381C100.84 211.043 98.1364 213.206 97.7906 216.516C97.4365 219.906 99.6427 222.501 102.873 222.838C106.183 223.184 108.815 220.933 109.153 217.703ZM107.721 217.553C107.45 220.147 105.425 221.818 103.006 221.565C100.619 221.316 98.9518 219.259 99.2228 216.666C99.4854 214.151 101.391 212.388 103.937 212.654C106.324 212.903 107.985 215.023 107.721 217.553Z" fill="#1E3056"/>
<path d="M94.5625 210.246C93.9318 210.063 92.6164 209.716 91.6515 209.486C89.3949 208.947 87.472 209.492 86.9446 211.702C86.5881 213.196 87.2828 214.283 88.5848 214.824L88.5774 214.855C87.4529 214.948 86.435 215.561 86.1082 216.93C85.7479 218.44 86.3684 219.838 88.9674 220.458C89.979 220.7 91.3597 220.98 91.9703 221.109L94.5625 210.246ZM90.3001 214.46C88.7282 214.085 87.9741 213.247 88.2489 212.095C88.5683 210.757 89.6736 210.33 91.2766 210.712C91.8991 210.861 92.592 211.059 92.9426 211.176L92.0587 214.88L90.3001 214.46ZM89.2956 219.221C87.8482 218.875 87.2305 218.087 87.5016 216.95C87.7838 215.768 88.8854 215.356 90.0371 215.631L91.7802 216.047L90.9409 219.564C90.5481 219.487 89.8714 219.358 89.2956 219.221Z" fill="#1E3056"/>
<path d="M84.8227 207.911L83.5344 207.427L81.0096 210.103L76.2309 208.31L76.0743 204.628L74.7111 204.117L75.263 216.355L76.3566 216.765L84.8227 207.911ZM76.4824 214.881L76.2756 209.694L80.0506 211.11L76.4824 214.881Z" fill="#1E3056"/>
<path d="M64.0183 198.677L71.9269 202.889L66.6626 212.774L65.4622 212.135L70.1248 203.379L64.8289 200.559L60.1663 209.315L58.9659 208.676L63.6285 199.92L62.2869 199.205L63.8661 196.24L64.9959 196.841L64.0183 198.677Z" fill="#1E3056"/>
<path d="M48.4396 198.93L59.2211 195.724L60.1889 196.433L53.5675 205.466L52.4706 204.662L57.7678 197.436L46.9862 200.642L46.0184 199.933L52.6398 190.9L53.7367 191.704L48.4396 198.93Z" fill="#1E3056"/>
<path d="M44.0017 183.174L44.9875 184.111L42.1217 187.127L43.641 188.571L48.606 187.55L49.7194 188.608L44.4383 189.659C44.734 190.308 44.8413 190.97 44.7604 191.643C44.6721 192.324 44.3781 192.928 43.8784 193.454C43.1362 194.235 42.2596 194.623 41.2484 194.618C40.23 194.622 39.1988 194.127 38.155 193.135C38.1241 193.106 37.8067 192.79 37.2029 192.186C36.9009 191.885 36.5953 191.587 36.2861 191.293L44.0017 183.174ZM42.8752 189.609L41.2399 188.054L38.1537 191.302C38.6651 191.832 39.0214 192.193 39.2224 192.384C39.8255 192.957 40.4516 193.25 41.1008 193.264C41.735 193.278 42.2945 193.03 42.7795 192.52C43.1763 192.102 43.3715 191.618 43.365 191.067C43.3659 190.509 43.2026 190.023 42.8752 189.609Z" fill="#1E3056"/>
<path d="M32.6209 169.541L29.0239 171.905C28.7565 171.41 28.4008 170.84 28.1548 170.465C26.6524 168.179 24.5233 168.027 22.9989 169.029C21.5414 169.986 20.6157 171.724 22.3729 174.399C22.7595 174.987 23.6648 176.307 24.0075 176.828L33.3677 170.678L32.6209 169.541ZM23.3723 173.589C22.3971 172.105 22.6665 170.97 23.7763 170.241C24.953 169.468 26.2065 169.831 27.1114 171.208C27.419 171.676 27.6822 172.135 27.9408 172.616L24.3304 174.989C24.0271 174.556 23.6184 173.963 23.3723 173.589Z" fill="#1E3056"/>
<path d="M27.7272 161.808L24.7664 156.044L23.6279 156.629L25.9672 161.183L22.6369 162.894L20.5899 158.908L19.4514 159.493L21.4983 163.478L18.2818 165.131L16.0156 160.719L14.877 161.303L17.7646 166.925L27.7272 161.808Z" fill="#1E3056"/>
<path d="M20.4811 145.577L20.0081 144.302L9.5073 148.198L9.98029 149.473L14.5256 147.787L16.668 153.562L12.1227 155.248L12.5957 156.523L23.0965 152.628L22.6235 151.353L17.8681 153.117L15.7257 147.341L20.4811 145.577Z" fill="#1E3056"/>
<path d="M13.2892 141.965C16.6213 141.25 18.404 138.348 17.7225 135.172C17.041 131.996 14.1462 130.097 10.8923 130.796C7.56012 131.511 5.77745 134.413 6.45892 137.589C7.15717 140.843 10.1135 142.647 13.2892 141.965ZM12.987 140.557C10.4371 141.105 8.22069 139.698 7.71043 137.32C7.20688 134.974 8.64444 132.751 11.1944 132.204C13.6661 131.673 15.9339 132.937 16.471 135.44C16.9745 137.787 15.4744 140.024 12.987 140.557Z" fill="#1E3056"/>
<path d="M15.8302 125.873C15.809 125.216 15.7309 123.858 15.6506 122.87C15.4629 120.557 14.349 118.898 12.0844 119.082C10.5535 119.206 9.7355 120.203 9.62486 121.609L9.59296 121.612C9.15538 120.572 8.2575 119.794 6.85412 119.908C5.3072 120.033 4.17028 121.057 4.38647 123.72C4.47061 124.756 4.63237 126.156 4.69881 126.777L15.8302 125.873ZM10.5026 123.127C10.3718 121.516 10.9346 120.54 12.1147 120.444C13.4862 120.332 14.235 121.251 14.3683 122.893C14.4201 123.531 14.4465 124.252 14.4444 124.621L10.6488 124.929L10.5026 123.127ZM5.66486 123.648C5.54446 122.165 6.10299 121.333 7.26716 121.239C8.47917 121.14 9.21199 122.06 9.30778 123.24L9.45277 125.026L5.84863 125.319C5.80032 124.921 5.71276 124.238 5.66486 123.648Z" fill="#1E3056"/>
<path d="M14.9967 115.509L15.0551 114.134L11.7266 112.568L11.9432 107.468L15.3932 106.174L15.455 104.719L3.99677 109.052L3.9472 110.219L14.9967 115.509ZM5.77666 109.753L10.6419 107.941L10.4708 111.97L5.77666 109.753Z" fill="#1E3056"/>
<path d="M15.7253 101.684L17.2692 92.8577L19.3181 93.2161L19.5386 91.9552L16.2289 91.3763L15.967 92.8735L6.19533 91.1642L5.96099 92.5039L15.7326 94.2132L14.6988 100.123L4.92714 98.4141L4.6928 99.7538L15.7253 101.684Z" fill="#1E3056"/>
<path d="M18.505 87.5585L12.0817 78.3247L20.6041 81.0906L21.0239 79.797L10.3709 76.3397L10.0004 77.4811L16.4238 86.7148L7.90135 83.949L7.48153 85.2426L18.1345 88.6999L18.505 87.5585Z" fill="#1E3056"/>
<path d="M25.2588 70.0221L25.8486 68.7967L15.7566 63.9396C15.4721 64.5307 14.9015 65.6056 14.5754 66.2832C13.264 69.008 14.2094 70.9546 16.0259 71.8289C17.4676 72.5227 18.8915 72.0361 19.8092 71.1993L22.4279 75.9043L23.094 74.5203L20.6014 70.1067L21.5104 68.2181L25.2588 70.0221ZM19.3786 69.6958C18.8112 70.5059 17.6452 71.0101 16.5783 70.4966C15.3817 69.9207 14.8614 68.6404 15.6178 67.069C15.8259 66.6365 16.1462 66.0448 16.3202 65.7202L20.357 67.663L19.3786 69.6958Z" fill="#1E3056"/>
<path d="M35.2418 53.8519L31.8851 51.1579C32.2731 50.7512 32.7062 50.2372 32.9866 49.8878C34.6991 47.754 34.1876 45.6817 32.7651 44.54C31.4049 43.4484 29.4664 43.1031 27.4635 45.5987C27.0228 46.1478 26.0463 47.4156 25.6557 47.9023L34.3905 54.9125L35.2418 53.8519ZM28.5419 46.3001C29.6535 44.915 30.8156 44.8218 31.8513 45.6531C32.9493 46.5343 32.9898 47.8388 31.9583 49.124C31.6077 49.5608 31.2523 49.9525 30.8744 50.3467L27.5053 47.6428C27.8233 47.221 28.2614 46.6494 28.5419 46.3001Z" fill="#1E3056"/>
<path d="M41.0013 46.8928L45.5667 42.2942L44.6583 41.3924L41.0511 45.0259L38.3941 42.3881L41.5504 39.2088L40.642 38.307L37.4857 41.4863L34.9195 38.9387L38.414 35.4187L37.5056 34.5169L33.053 39.0021L41.0013 46.8928Z" fill="#1E3056"/>
<path d="M54.2231 34.9315L55.29 34.088L48.3435 25.3024L47.2767 26.1459L50.2835 29.9488L45.4514 33.7694L42.4446 29.9665L41.3778 30.81L48.3242 39.5956L49.3911 38.7521L46.2453 34.7734L51.0774 30.9529L54.2231 34.9315Z" fill="#1E3056"/>
<path d="M55.0821 27.1577C56.8047 30.0983 60.1196 30.8823 62.9222 29.2406C65.7247 27.5989 66.6215 24.255 64.9394 21.3834C63.2168 18.4428 59.9019 17.6588 57.0994 19.3005C54.2278 20.9826 53.4404 24.3551 55.0821 27.1577ZM56.3246 26.4298C55.0064 24.1795 55.6479 21.6342 57.7464 20.4049C59.8172 19.1919 62.3787 19.8609 63.6969 22.1113C64.9747 24.2926 64.4841 26.8422 62.2752 28.1361C60.2043 29.3492 57.6105 28.6249 56.3246 26.4298Z" fill="#1E3056"/>
<path d="M71.5422 24.3081C72.1597 24.0844 73.4266 23.5888 74.3417 23.2058C76.4818 22.31 77.7137 20.7363 76.8364 18.6405C76.2434 17.2236 75.0414 16.7554 73.6708 17.0862L73.6585 17.0567C74.5114 16.3181 74.9724 15.2232 74.4288 13.9244C73.8296 12.4927 72.504 11.7293 70.0392 12.761C69.0799 13.1626 67.7996 13.7505 67.2301 14.0062L71.5422 24.3081ZM72.5 18.3915C73.9907 17.7676 75.0939 17.9996 75.551 19.0918C76.0823 20.3611 75.4414 21.3578 73.9212 21.9941C73.3309 22.2412 72.6543 22.4897 72.3025 22.6023L70.8322 19.0896L72.5 18.3915ZM70.5039 13.9541C71.8765 13.3796 72.8407 13.6525 73.2916 14.7299C73.7611 15.8516 73.1141 16.8336 72.0219 17.2907L70.3689 17.9826L68.9727 14.6471C69.3355 14.4779 69.9578 14.1827 70.5039 13.9541Z" fill="#1E3056"/>
<path d="M80.4204 20.5158L81.7443 20.1408L82.19 16.4891L87.1008 15.0982L89.4107 17.9694L90.8116 17.5726L83.1082 8.04736L81.9844 8.36566L80.4204 20.5158ZM83.0006 9.95698L86.244 14.0105L82.3646 15.1093L83.0006 9.95698Z" fill="#1E3056"/>
<path d="M94.1129 16.7846L102.982 15.512L103.278 17.5709L104.545 17.3891L104.067 14.0632L102.563 14.2791L101.154 4.45963L99.8075 4.65279L101.216 14.4722L95.2773 15.3244L93.8684 5.50499L92.5222 5.69815L94.1129 16.7846Z" fill="#1E3056"/>
<path d="M108.778 15L115.578 6.04V15H116.938V3.8H115.738L108.938 12.76V3.8H107.578V15H108.778Z" fill="#1E3056"/>
<path d="M127.441 15.9512L128.789 16.1289L130.252 5.02486C129.602 4.93917 128.402 4.73274 127.657 4.63451C124.659 4.23951 123.105 5.74541 122.841 7.74414C122.632 9.33043 123.539 10.5312 124.621 11.1417L120.969 15.0985L122.491 15.2992L125.906 11.5531L127.984 11.8269L127.441 15.9512ZM125.915 10.2632C124.968 9.97705 124.125 9.02678 124.279 7.85293C124.453 6.5363 125.507 5.6423 127.236 5.87011C127.712 5.93281 128.374 6.05231 128.736 6.11625L128.151 10.5579L125.915 10.2632Z" fill="#1E3056"/>
<path d="M145.694 20.2798L147.206 16.2502C147.713 16.4919 148.337 16.7429 148.756 16.9003C151.318 17.8615 153.127 16.7289 153.768 15.0211C154.381 13.3883 154.104 11.4388 151.108 10.3146C150.449 10.0673 148.939 9.53517 148.355 9.31595L144.421 19.8021L145.694 20.2798ZM150.778 11.558C152.441 12.1819 152.892 13.2569 152.425 14.5003C151.931 15.8185 150.704 16.264 149.161 15.685C148.637 15.4883 148.154 15.2728 147.661 15.0368L149.179 10.9921C149.679 11.1627 150.358 11.4006 150.778 11.558Z" fill="#1E3056"/>
<path d="M154.367 23.6809L160.153 26.5989L160.729 25.456L156.157 23.1504L157.843 19.8075L161.844 21.8249L162.42 20.682L158.42 18.6646L160.048 15.436L164.477 17.6695L165.053 16.5266L159.41 13.6807L154.367 23.6809Z" fill="#1E3056"/>
<path d="M169.963 32.6343L171.095 33.3895L177.313 24.0746L176.182 23.3195L173.49 27.3515L168.367 23.9311L171.059 19.8991L169.928 19.144L163.709 28.4589L164.84 29.214L167.656 24.9957L172.78 28.416L169.963 32.6343Z" fill="#1E3056"/>
<path d="M178.141 31.4862C175.866 34.0238 176.131 37.4198 178.549 39.5879C180.968 41.7561 184.426 41.5901 186.647 39.1121C188.922 36.5746 188.658 33.1785 186.239 31.0104C183.761 28.7888 180.309 29.0678 178.141 31.4862ZM179.213 32.4475C180.954 30.5056 183.574 30.34 185.385 31.9634C187.172 33.5655 187.316 36.209 185.575 38.1509C183.888 40.0332 181.31 40.3438 179.404 38.6349C177.617 37.0328 177.515 34.3417 179.213 32.4475Z" fill="#1E3056"/>
<path d="M185.273 45.6817C185.677 46.1989 186.542 47.2488 187.191 47.9993C188.708 49.7546 190.587 50.436 192.306 48.9503C193.468 47.946 193.539 46.658 192.798 45.4583L192.823 45.4374C193.79 46.0183 194.974 46.1159 196.039 45.1952C197.213 44.1804 197.527 42.6831 195.779 40.6615C195.099 39.8746 194.142 38.8407 193.722 38.3791L185.273 45.6817ZM191.194 44.7516C192.25 45.9743 192.373 47.0949 191.477 47.8691C190.436 48.7688 189.289 48.4698 188.212 47.2229C187.793 46.7387 187.347 46.173 187.13 45.8737L190.012 43.3837L191.194 44.7516ZM194.79 41.4743C195.763 42.6001 195.804 43.6013 194.92 44.365C194 45.1601 192.865 44.8506 192.091 43.9548L190.919 42.599L193.655 40.2346C193.929 40.5267 194.403 41.0264 194.79 41.4743Z" fill="#1E3056"/>
<path d="M192.177 53.6719L192.941 54.8163L196.553 54.1172L199.387 58.3621L197.365 61.4431L198.174 62.6541L204.868 52.3944L204.219 51.423L192.177 53.6719ZM203.018 52.8793L200.158 57.2123L197.919 53.8589L203.018 52.8793Z" fill="#1E3056"/>
<path d="M199.595 64.9966L203.571 73.0265L201.707 73.9493L202.275 75.0964L205.286 73.6057L204.611 72.2435L213.502 67.8423L212.898 66.6234L204.008 71.0247L201.346 65.6475L210.236 61.2463L209.633 60.0275L199.595 64.9966Z" fill="#1E3056"/>
<path d="M205.806 78.2687L216.441 81.9307L207.93 84.7287L208.354 86.0207L218.994 82.5232L218.619 81.3832L207.984 77.7212L216.496 74.9233L216.071 73.6313L205.431 77.1288L205.806 78.2687Z" fill="#1E3056"/>
<path d="M210.664 96.1932L210.913 97.5301L221.923 95.4737C221.803 94.8289 221.626 93.6247 221.488 92.8855C220.933 89.9129 219.019 88.9031 217.038 89.2733C215.465 89.567 214.605 90.8019 214.36 92.0195L209.465 89.7761L209.747 91.286L214.368 93.369L214.753 95.4294L210.664 96.1932ZM215.597 92.9767C215.575 91.9879 216.217 90.8915 217.381 90.6741C218.686 90.4303 219.863 91.1545 220.183 92.8689C220.271 93.3407 220.363 94.0072 220.415 94.3718L216.011 95.1944L215.597 92.9767Z" fill="#1E3056"/>
</svg>
