<svg width="64" height="64" viewBox="0 0 64 64" fill="none" xmlns="http://www.w3.org/2000/svg">
<circle cx="32" cy="32" r="31.5" stroke="#8E9093"/>
<path d="M42.4267 21.6323H41.9639V19.9839C41.9639 18.4088 40.8023 17.1275 39.3786 17.1275L20.614 17C18.0923 17 16.0407 19.291 16.0407 22.1068C16.0407 22.1068 16.0416 33.7396 16.0418 33.7468C16.0532 35.0108 16.4782 36.217 17.2433 37.1481C17.545 37.5152 17.8885 37.8273 18.2627 38.0779C18.0888 38.1703 17.9151 38.2794 17.7453 38.408C16.5872 39.2845 16 40.738 16 42.7281C16 45.5439 18.0516 47.8348 20.5688 47.8348L42.4221 48C42.4236 48 42.4251 48 42.4267 48C43.8545 48 45.0162 46.7187 45.0162 45.1436C45.0162 44.1738 44.6774 43.5029 44.2244 43.0533C45.8551 42.272 47 40.4613 47 38.3577C47 38.3321 47 26.6697 47 26.6697C47 23.8921 44.9484 21.6323 42.4267 21.6323ZM39.3745 18.3396C40.1346 18.3396 40.753 19.0772 40.753 19.9839V22.3029L37.2395 18.3251L39.3745 18.3396ZM36.2902 19.259L39.1222 22.3557C39.1213 22.3557 39.1205 22.3557 39.1196 22.3557C38.0446 22.3557 37.0064 22.7486 36.2902 23.1019V19.259ZM17.2516 22.1068H17.2517C17.2517 19.9593 18.76 18.2121 20.6099 18.2121L35.0792 18.3105V24.1474C35.0792 24.3733 35.2049 24.5805 35.4051 24.685C35.4931 24.7308 35.589 24.7535 35.6846 24.7535C35.8067 24.7535 35.9282 24.7166 36.0319 24.6439C36.0473 24.6331 37.5854 23.5678 39.1195 23.5678C39.7733 23.5678 40.3098 23.7617 40.753 24.1582V29.1553C40.3543 28.8774 39.8831 28.7159 39.3786 28.7159L20.614 28.5884C19.2855 28.5884 18.0879 29.2247 17.2516 30.2382V22.1068ZM42.5844 42.2477C42.5487 42.2411 22.3301 42.2372 22.3301 42.2372C21.9957 42.2372 21.7246 42.5085 21.7246 42.8433C21.7246 43.1779 21.9957 43.4494 22.3301 43.4494C22.3301 43.4494 42.3553 43.461 42.3865 43.4631C42.39 43.4633 42.7505 43.496 43.1039 43.7113C43.5758 43.9988 43.8052 44.4674 43.8052 45.1437C43.8052 46.0495 43.188 46.7866 42.4288 46.7879L20.5733 46.6227C18.7193 46.6227 17.2109 44.8755 17.2109 42.7281C17.2109 39.3392 19.1291 38.8027 20.2918 38.7894C20.3985 38.7977 41.4978 38.7842 41.4978 38.7842C41.8322 38.7842 42.1033 38.5128 42.1033 38.1781C42.1033 37.8435 41.8322 37.5721 41.4978 37.5721C41.4978 37.5721 20.459 37.5772 20.3402 37.577C18.6108 37.4153 17.259 35.724 17.252 33.7107C17.259 31.57 18.7643 29.8308 20.6099 29.8308L39.3745 29.9584C40.1307 29.9584 40.7464 30.6886 40.7527 31.589C40.7485 31.7641 40.6776 33.2606 39.5688 33.2606C39.5676 33.2606 22.3301 33.2359 22.3301 33.2359C21.9957 33.2359 21.7246 33.5073 21.7246 33.842C21.7246 34.1767 21.9957 34.4481 22.3301 34.4481C22.3301 34.4481 42.5395 34.4647 42.5955 34.468C44.3278 34.5699 45.7437 36.232 45.7868 38.2604C45.7868 38.2614 45.787 38.2623 45.787 38.2633C45.7877 38.2948 45.7891 38.3261 45.7891 38.3577C45.7891 40.4439 44.3654 42.1519 42.5844 42.2477ZM45.7891 34.8954H45.7891C45.0581 32.9078 41.4832 33.2402 41.4832 33.2402C41.78 32.7821 41.9544 32.2225 41.9631 31.619C41.9632 31.6135 41.964 22.8444 41.964 22.8444H42.4268C44.2808 22.8444 45.7891 24.5604 45.7891 26.6698V34.8954Z" fill="#8E9093"/>
</svg>
