<svg width="64" height="64" viewBox="0 0 64 64" fill="none" xmlns="http://www.w3.org/2000/svg">
<circle cx="32" cy="32" r="31.5" stroke="#8E9093"/>
<path d="M44.5185 29.1514V20.5181C44.5185 20.244 44.313 19.9699 44.0389 19.9014L42.2574 19.2848C39.3111 18.3255 36.1593 17.7773 33.0074 17.7773H29.9241C26.7722 17.7773 23.6889 18.257 20.6741 19.2848L18.8926 19.9014C18.687 19.9699 18.4815 20.244 18.4815 20.5181V29.1514C15.3296 30.1792 13 33.194 13 36.6885V41.7588C13 42.1699 13.2741 42.444 13.6852 42.444H15.7407V45.8699C15.7407 46.281 16.0148 46.5551 16.4259 46.5551H19.1667C19.5778 46.5551 19.8519 46.281 19.8519 45.8699V42.444H43.1481V45.8699C43.1481 46.281 43.4222 46.5551 43.8333 46.5551H46.5741C46.9852 46.5551 47.2593 46.281 47.2593 45.8699V42.444H49.3148C49.7259 42.444 50 42.1699 50 41.7588V36.6885C50 33.194 47.6704 30.1792 44.5185 29.1514ZM19.8519 28.7403V20.9977L21.1537 20.5866C23.963 19.6273 26.9778 19.1477 29.9241 19.1477H33.0074C36.0222 19.1477 38.9685 19.6273 41.7778 20.5866L43.0796 20.9977V28.7403H41.9833H41.6407C41.2981 26.8218 39.6537 25.3144 37.5982 25.3144H36.2278C34.1722 25.3144 32.5278 26.8218 32.1852 28.7403H30.6778C30.3352 26.8218 28.6907 25.3144 26.6352 25.3144H25.2648C23.2093 25.3144 21.5648 26.8218 21.2222 28.7403H20.8796H19.8519ZM40.3389 28.7403H33.6926C33.9667 27.5755 35.063 26.6848 36.3648 26.6848H37.7352C38.9685 26.6848 39.9963 27.5755 40.3389 28.7403ZM29.3759 28.7403H22.7296C23.0037 27.5755 24.1 26.6848 25.4019 26.6848H26.7722C28.0056 26.6848 29.0333 27.5755 29.3759 28.7403ZM18.4815 45.1848H17.1111V42.444H18.4815V45.1848ZM45.8889 45.1848H44.5185V42.444H45.8889V45.1848ZM48.6296 41.0736H46.5741H43.8333H19.1667H16.4259H14.3704V36.6885C14.3704 33.057 17.3167 30.1107 20.9481 30.1107H21.9074H30.1296H32.8704H41.0926H42.0519C45.6833 30.1107 48.6296 33.057 48.6296 36.6885V41.0736Z" fill="#8E9093"/>
</svg>
