<svg width="64" height="64" viewBox="0 0 64 64" fill="none" xmlns="http://www.w3.org/2000/svg">
<circle cx="32" cy="32" r="31.5" stroke="#8E9093"/>
<path d="M50.6478 40.0258V26.5038L51.4654 25.6862C52.0943 25.0573 52.0943 24.1139 51.4654 23.485C50.8994 22.9189 49.8302 22.9189 49.2641 23.485L48.4465 24.3026H40.3333V19.6485L41.1509 18.8309C41.7799 18.2019 41.7799 17.2585 41.1509 16.6296C40.5849 16.0636 39.5786 16.0636 38.9497 16.6296L38.1321 17.4472H15.4906L14.6101 16.6296C14.044 16.0636 13.0377 16.0636 12.4717 16.6296C11.8428 17.2585 11.8428 18.2019 12.4717 18.8309L13.2893 19.6485V33.2334L12.4717 34.051C11.8428 34.6799 11.8428 35.6233 12.4717 36.2522C13.1006 36.8812 14.044 36.8812 14.673 36.2522L15.4906 35.4346H23.6038V40.0887L22.7862 40.9063C22.1572 41.5353 22.1572 42.4787 22.7862 43.1076C23.3522 43.6736 24.4214 43.6736 24.9874 43.1076L25.805 42.29H48.5094L49.327 43.1076C49.956 43.7365 50.8994 43.7365 51.5283 43.1076C52.1572 42.4787 52.1572 41.5353 51.5283 40.9063L50.6478 40.0258ZM15.239 34.4284C15.1132 34.4284 14.9874 34.4912 14.9245 34.5541L13.9811 35.5604C13.7296 35.812 13.3522 35.812 13.1006 35.5604C12.8491 35.3089 12.8491 34.9315 13.1006 34.6799L14.044 33.7365C14.1069 33.6736 14.1698 33.5478 14.1698 33.4221V19.4598C14.1698 19.334 14.1069 19.2082 14.044 19.1453L13.1006 18.2019C12.8491 17.9504 12.8491 17.573 13.1006 17.3214C13.3522 17.0699 13.7296 17.0699 13.9811 17.3214L14.9245 18.2648C14.9874 18.3277 15.1132 18.3906 15.239 18.3906H38.3208C38.4465 18.3906 38.5723 18.3277 38.6352 18.2648L39.5786 17.3214C39.8302 17.0699 40.2075 17.1328 40.4591 17.3214C40.7107 17.573 40.7107 17.9504 40.4591 18.2019L39.5157 19.1453C39.4528 19.2082 39.3899 19.334 39.3899 19.4598V24.3026H25.7421L24.9245 23.485C24.2956 22.9189 23.2893 22.9189 22.7233 23.485C22.0943 24.1139 22.0943 25.0573 22.7233 25.6862L23.5409 26.5038V34.4912H15.239V34.4284ZM50.8365 42.4158C50.5849 42.6673 50.2075 42.6673 49.956 42.4158L49.0126 41.4724C48.9497 41.4095 48.8239 41.3466 48.6981 41.3466H25.5535C25.4277 41.3466 25.3019 41.4095 25.239 41.4724L24.2956 42.4158C24.044 42.6673 23.6667 42.6673 23.4151 42.4158C23.1635 42.1642 23.1635 41.7868 23.4151 41.5353L24.3585 40.5919C24.4214 40.529 24.4843 40.4032 24.4843 40.2774C24.4843 35.246 24.4843 31.1579 24.4843 26.3151C24.4843 26.1894 24.4214 26.0636 24.3585 26.0007L23.4151 25.0573C23.1635 24.8057 23.1635 24.4283 23.4151 24.1768C23.6038 23.9252 24.044 23.9252 24.2956 24.1768L25.239 25.1202C25.3019 25.1831 25.4277 25.246 25.5535 25.246C33.5409 25.246 40.2704 25.246 48.6352 25.246C48.761 25.246 48.8868 25.1831 48.9497 25.1202L49.8931 24.1768C50.1447 23.9252 50.522 23.9252 50.7736 24.1768C51.0252 24.4283 51.0252 24.8057 50.7736 25.0573L49.8302 26.0007C49.7673 26.0636 49.7044 26.1894 49.7044 26.3151V40.2774C49.7044 40.4032 49.7673 40.529 49.8302 40.5919L50.7736 41.5353C51.0252 41.7868 51.0252 42.1642 50.8365 42.4158Z" fill="#8E9093"/>
<path d="M33.9179 26.314H31.5908V27.2574H33.9179V26.314Z" fill="#8E9093"/>
<path d="M25.6163 28.075V30.2133H26.5597V28.075C26.5597 27.6347 26.9371 27.2574 27.3773 27.2574H30.1446V26.314H27.3773C26.3711 26.314 25.6163 27.1316 25.6163 28.075Z" fill="#8E9093"/>
<path d="M23.6054 19.4617H21.2783V20.4051H23.6054V19.4617Z" fill="#8E9093"/>
<path d="M15.3038 21.2227V23.361H16.2472V21.2227C16.2472 20.7824 16.6246 20.4051 17.0648 20.4051H19.8321V19.4617H17.0648C16.0586 19.4617 15.3038 20.2793 15.3038 21.2227Z" fill="#8E9093"/>
<path d="M46.0576 44.8728V46.0049H44.9255V46.9483H46.0576V48.0175H47.001V46.9483H48.0702V46.0049H47.001V44.8728H46.0576Z" fill="#8E9093"/>
<path d="M44.4828 21.5353H45.4262V20.4032H46.4954V19.4598H45.4262V18.3906H44.4828V19.4598H43.3507V20.4032H44.4828V21.5353Z" fill="#8E9093"/>
</svg>
